<?xml version="1.0" encoding="UTF-8"?>
<!DOCTYPE svg PUBLIC "-//W3C//DTD SVG 1.1//EN" "http://www.w3.org/Graphics/SVG/1.1/DTD/svg11.dtd">
<svg xmlns="http://www.w3.org/2000/svg" version="1.1" width="200px" height="200px" style="shape-rendering:geometricPrecision; text-rendering:geometricPrecision; image-rendering:optimizeQuality; fill-rule:evenodd; clip-rule:evenodd" xmlns:xlink="http://www.w3.org/1999/xlink">
<g><path style="opacity:1" fill="#0e2329" d="M -0.5,-0.5 C 66.1667,-0.5 132.833,-0.5 199.5,-0.5C 199.5,66.1667 199.5,132.833 199.5,199.5C 132.833,199.5 66.1667,199.5 -0.5,199.5C -0.5,132.833 -0.5,66.1667 -0.5,-0.5 Z"/></g>
<g><path style="opacity:1" fill="#040708" d="M 64.5,41.5 C 64.5032,46.5917 63.6699,46.5917 62,41.5C 60.9371,36.3383 59.4371,31.3383 57.5,26.5C 56.2151,21.5838 56.8817,16.9171 59.5,12.5C 60.7989,13.09 61.6322,14.09 62,15.5C 62.0842,24.3905 62.9175,33.0572 64.5,41.5 Z"/></g>
<g><path style="opacity:1" fill="#060808" d="M 55.5,29.5 C 56.5157,34.2251 57.849,38.8918 59.5,43.5C 58.7261,44.7112 57.8928,44.7112 57,43.5C 55.9196,41.0038 54.5862,38.6705 53,36.5C 52.3076,37.0253 51.8076,37.6919 51.5,38.5C 52.5,40.5 53.5,42.5 54.5,44.5C 54.1667,44.8333 53.8333,45.1667 53.5,45.5C 51.7089,43.5867 49.7089,41.92 47.5,40.5C 46.3338,42.3649 46.6671,44.0316 48.5,45.5C 44.5753,49.796 44.5753,54.1293 48.5,58.5C 45.0659,62.1992 43.8993,66.5325 45,71.5C 48.1667,72.6667 48.3333,74.1667 45.5,76C 46.4693,81.7722 49.136,86.6055 53.5,90.5C 52.6171,91.548 51.9504,92.7147 51.5,94C 52.6084,100.68 55.9418,105.846 61.5,109.5C 61.5299,110.497 61.0299,111.164 60,111.5C 51.4711,106.957 45.8044,99.9565 43,90.5C 42.376,88.5355 42.876,86.8689 44.5,85.5C 40.2441,80.9881 37.5774,75.6548 36.5,69.5C 36.8178,68.3527 37.4844,67.5194 38.5,67C 36.3874,66.1283 35.0541,64.6283 34.5,62.5C 34.7639,59.2145 35.7639,56.2145 37.5,53.5C 36.5291,52.0379 36.8624,50.7046 38.5,49.5C 37.2887,48.1255 36.2887,46.6255 35.5,45C 36.5171,42.5267 36.5171,40.0267 35.5,37.5C 37.3464,37.7778 38.6798,37.1112 39.5,35.5C 38.5,34.1667 37.5,32.8333 36.5,31.5C 36.8333,30.5 37.5,29.8333 38.5,29.5C 41.0579,31.084 43.3913,32.584 45.5,34C 43.4765,31.3603 43.1432,28.527 44.5,25.5C 47.0728,27.6416 48.9062,30.3082 50,33.5C 49.3828,28.1232 48.2161,22.7899 46.5,17.5C 47.3542,12.7628 48.8542,12.4295 51,16.5C 52.3651,21.0023 53.8651,25.3357 55.5,29.5 Z"/></g>
<g><path style="opacity:1" fill="#070a0a" d="M 72.5,39.5 C 72.8242,43.5546 72.4909,47.5546 71.5,51.5C 70.5726,49.8872 69.7393,48.2205 69,46.5C 68.7973,39.4207 68.2973,32.4207 67.5,25.5C 66.2086,24.5272 66.2086,23.5272 67.5,22.5C 68.6507,21.269 69.8173,21.269 71,22.5C 71.1728,28.3482 71.6728,34.0149 72.5,39.5 Z"/></g>
<g><path style="opacity:1" fill="#c6e4ee" d="M 67.5,25.5 C 68.2973,32.4207 68.7973,39.4207 69,46.5C 69.7393,48.2205 70.5726,49.8872 71.5,51.5C 72.4909,47.5546 72.8242,43.5546 72.5,39.5C 72.9954,37.5183 73.4954,35.5183 74,33.5C 74.6667,32.1667 75.3333,32.1667 76,33.5C 76.5769,40.4998 77.0769,47.4998 77.5,54.5C 76.1667,54.5 74.8333,54.5 73.5,54.5C 73.3433,55.8734 73.51,57.2068 74,58.5C 77.5583,59.5645 78.0583,61.2312 75.5,63.5C 76.2739,64.7112 77.1072,64.7112 78,63.5C 79.2684,65.7173 80.7684,67.7173 82.5,69.5C 82.8797,67.9793 83.0464,66.3126 83,64.5C 83.9147,65.3279 84.5814,66.3279 85,67.5C 86.4131,72.7402 88.4131,77.7402 91,82.5C 91.6342,85.5547 91.4675,88.5547 90.5,91.5C 91.2096,94.8595 89.8762,96.6929 86.5,97C 90.5991,98.3511 93.9325,99.8511 96.5,101.5C 97.1667,101.833 97.8333,102.167 98.5,102.5C 96.7029,103.384 95.7029,105.384 95.5,108.5C 99.0993,108.262 99.4327,109.262 96.5,111.5C 95.3112,112.429 93.9778,112.762 92.5,112.5C 91.5041,112.414 90.6708,112.748 90,113.5C 89.7811,114.938 89.2811,116.271 88.5,117.5C 88.0024,116.397 87.6691,115.397 87.5,114.5C 86.4777,114.855 85.811,115.522 85.5,116.5C 83.9755,117.174 82.6422,118.174 81.5,119.5C 78.0423,118.325 75.0423,116.491 72.5,114C 69.8333,113.667 67.1667,113.333 64.5,113C 63.3636,111.855 62.3636,110.688 61.5,109.5C 55.9418,105.846 52.6084,100.68 51.5,94C 51.9504,92.7147 52.6171,91.548 53.5,90.5C 49.136,86.6055 46.4693,81.7722 45.5,76C 48.3333,74.1667 48.1667,72.6667 45,71.5C 43.8993,66.5325 45.0659,62.1992 48.5,58.5C 44.5753,54.1293 44.5753,49.796 48.5,45.5C 46.6671,44.0316 46.3338,42.3649 47.5,40.5C 49.7089,41.92 51.7089,43.5867 53.5,45.5C 53.8333,45.1667 54.1667,44.8333 54.5,44.5C 53.5,42.5 52.5,40.5 51.5,38.5C 51.8076,37.6919 52.3076,37.0253 53,36.5C 54.5862,38.6705 55.9196,41.0038 57,43.5C 57.8928,44.7112 58.7261,44.7112 59.5,43.5C 57.849,38.8918 56.5157,34.2251 55.5,29.5C 55.2852,27.8212 55.9519,26.8212 57.5,26.5C 59.4371,31.3383 60.9371,36.3383 62,41.5C 63.6699,46.5917 64.5032,46.5917 64.5,41.5C 64.3342,36.8215 64.5008,32.1548 65,27.5C 65.4169,26.244 66.2502,25.5774 67.5,25.5 Z"/></g>
<g><path style="opacity:1" fill="#06090a" d="M 160.5,45.5 C 160.157,43.7748 159.157,43.2748 157.5,44C 155.984,45.897 155.317,48.0637 155.5,50.5C 154.833,49.1667 154.167,47.8333 153.5,46.5C 153.585,45.0047 152.919,44.0047 151.5,43.5C 150.676,46.7848 150.176,50.1182 150,53.5C 149.64,51.5789 148.806,49.9122 147.5,48.5C 146.682,51.1071 146.182,53.7737 146,56.5C 143.929,53.5845 142.595,53.9178 142,57.5C 141.439,56.9781 140.772,56.6448 140,56.5C 138.403,57.8847 136.57,58.5514 134.5,58.5C 135.145,63.6943 132.811,66.0276 127.5,65.5C 127.5,67.5 127.5,69.5 127.5,71.5C 122.669,71.1621 121.335,73.1621 123.5,77.5C 122.868,79.7426 121.534,81.4093 119.5,82.5C 118.811,81.2264 117.977,81.2264 117,82.5C 116.517,81.552 116.351,80.552 116.5,79.5C 119.797,79.6713 120.131,79.0046 117.5,77.5C 118.242,76.7132 119.075,76.0465 120,75.5C 120.945,71.8859 121.612,68.2192 122,64.5C 123.356,63.6198 124.856,63.2865 126.5,63.5C 126.5,61.5 126.5,59.5 126.5,57.5C 132.023,58.4628 134.523,56.1295 134,50.5C 136.255,49.9582 138.088,48.7915 139.5,47C 140.449,46.3828 141.282,46.5494 142,47.5C 143.312,45.3424 144.978,45.0091 147,46.5C 147.182,43.7737 147.682,41.1071 148.5,38.5C 149.799,39.09 150.632,40.09 151,41.5C 151.101,38.3004 151.768,35.3004 153,32.5C 155.609,34.108 156.942,36.4413 157,39.5C 157.256,35.2604 159.422,33.2604 163.5,33.5C 163.692,37.9019 162.692,41.9019 160.5,45.5 Z"/></g>
<g><path style="opacity:1" fill="#2a4047" d="M 69.5,52.5 C 70.5,52.5 71.5,52.5 72.5,52.5C 72.5198,54.143 71.8532,55.4763 70.5,56.5C 70.8333,58.5 71.1667,60.5 71.5,62.5C 71.1667,63.5 70.5,64.1667 69.5,64.5C 68.5713,63.3112 68.238,61.9778 68.5,60.5C 66.8333,60.5 65.1667,60.5 63.5,60.5C 63.5,59.1667 63.5,57.8333 63.5,56.5C 65.1238,56.6399 66.2904,55.9733 67,54.5C 67.2492,55.624 67.7492,56.624 68.5,57.5C 69.4519,55.9547 69.7852,54.288 69.5,52.5 Z"/></g>
<g><path style="opacity:1" fill="#273d44" d="M 71.5,68.5 C 68.0429,68.3328 67.7096,67.3328 70.5,65.5C 71.3857,66.325 71.719,67.325 71.5,68.5 Z"/></g>
<g><path style="opacity:1" fill="#253b41" d="M 71.5,68.5 C 72.9362,66.6815 74.6029,66.3482 76.5,67.5C 75.1667,68.5 75.1667,69.5 76.5,70.5C 73.8301,72.0897 72.1634,71.423 71.5,68.5 Z"/></g>
<g><path style="opacity:1" fill="#8ba7b0" d="M 81.5,78.5 C 80.968,75.5404 80.3013,75.2071 79.5,77.5C 78.8141,76.1516 77.8141,74.985 76.5,74C 78.9868,74.192 81.4868,74.3587 84,74.5C 86.6699,75.9309 87.5032,77.9309 86.5,80.5C 86.7036,79.4706 86.2036,78.4706 85,77.5C 83.9887,78.3366 82.8221,78.67 81.5,78.5 Z"/></g>
<g><path style="opacity:1" fill="#22383f" d="M 81.5,78.5 C 80.8333,78.1667 80.1667,77.8333 79.5,77.5C 80.3013,75.2071 80.968,75.5404 81.5,78.5 Z"/></g>
<g><path style="opacity:1" fill="#3b5259" d="M 79.5,82.5 C 82.7567,84.155 82.9234,85.8217 80,87.5C 79.5065,85.8659 79.3398,84.1992 79.5,82.5 Z"/></g>
<g><path style="opacity:1" fill="#152b31" d="M 85.5,83.5 C 88.0764,83.7218 88.9098,85.0551 88,87.5C 86.5187,86.5291 85.6854,85.1958 85.5,83.5 Z"/></g>
<g><path style="opacity:1" fill="#14292f" d="M 76.5,85.5 C 78.337,85.6395 78.6704,86.3061 77.5,87.5C 76.7025,87.0431 76.3691,86.3764 76.5,85.5 Z"/></g>
<g><path style="opacity:1" fill="#7b969e" d="M 123.5,77.5 C 123.812,81.1585 125.478,82.8252 128.5,82.5C 127.975,83.1924 127.308,83.6924 126.5,84C 127.949,85.117 129.616,85.7837 131.5,86C 130.062,86.2189 128.729,86.7189 127.5,87.5C 132.779,90.3034 132.613,92.3034 127,93.5C 126.607,95.1992 127.107,96.6992 128.5,98C 128.167,98.5 127.833,99 127.5,99.5C 126.069,99.0234 124.736,98.3567 123.5,97.5C 123.863,96.8165 124.196,96.1499 124.5,95.5C 124.622,91.5304 124.622,87.5304 124.5,83.5C 123.14,82.3347 122.14,82.668 121.5,84.5C 120.167,84.5 119.5,83.8333 119.5,82.5C 121.534,81.4093 122.868,79.7426 123.5,77.5 Z"/></g>
<g><path style="opacity:1" fill="#3b5259" d="M 124.5,95.5 C 124.44,94.9569 124.107,94.6236 123.5,94.5C 122.684,96.2873 121.684,97.9539 120.5,99.5C 121.641,100.425 121.641,101.259 120.5,102C 123.125,103.393 123.125,104.559 120.5,105.5C 117.572,104.363 117.238,103.03 119.5,101.5C 118.833,100.833 118.167,100.167 117.5,99.5C 117.846,98.3044 118.346,98.3044 119,99.5C 119.353,98.3284 119.187,97.1618 118.5,96C 121.669,93.2989 122.669,89.4656 121.5,84.5C 122.14,82.668 123.14,82.3347 124.5,83.5C 124.622,87.5304 124.622,91.5304 124.5,95.5 Z"/></g>
<g><path style="opacity:1" fill="#506870" d="M 97.5,95.5 C 95.8762,95.6399 94.7096,94.9733 94,93.5C 92.5391,94.8825 91.7058,94.5492 91.5,92.5C 92.8333,92.5 94.1667,92.5 95.5,92.5C 95.238,91.0222 95.5713,89.6888 96.5,88.5C 97.086,88.7093 97.586,89.0426 98,89.5C 98.1078,91.4833 97.9411,93.4833 97.5,95.5 Z"/></g>
<g><path style="opacity:1" fill="#090c0d" d="M 135.5,95.5 C 140.602,96.7565 144.435,99.7565 147,104.5C 146.263,108.329 146.43,112.162 147.5,116C 147.607,118.221 146.94,120.054 145.5,121.5C 144.646,116.799 144.479,112.132 145,107.5C 142.847,103.346 139.514,100.68 135,99.5C 134.421,98.0715 134.588,96.7382 135.5,95.5 Z"/></g>
<g><path style="opacity:1" fill="#9fbcc5" d="M 90.5,91.5 C 91.1667,91.5 91.5,91.8333 91.5,92.5C 91.7058,94.5492 92.5391,94.8825 94,93.5C 94.7096,94.9733 95.8762,95.6399 97.5,95.5C 96.9423,96.7899 95.9423,97.6232 94.5,98C 95.305,99.1127 95.9717,100.279 96.5,101.5C 93.9325,99.8511 90.5991,98.3511 86.5,97C 89.8762,96.6929 91.2096,94.8595 90.5,91.5 Z"/></g>
<g><path style="opacity:1" fill="#c2e0ea" d="M 153.5,46.5 C 153.336,49.1873 153.503,51.854 154,54.5C 154.791,53.255 155.291,51.9217 155.5,50.5C 155.317,48.0637 155.984,45.897 157.5,44C 159.157,43.2748 160.157,43.7748 160.5,45.5C 159.004,51.1517 157.004,56.6517 154.5,62C 155.878,64.0983 155.544,65.9317 153.5,67.5C 145.8,70.3665 140.634,75.6998 138,83.5C 137.815,87.6754 136.981,91.6754 135.5,95.5C 134.588,96.7382 134.421,98.0715 135,99.5C 139.514,100.68 142.847,103.346 145,107.5C 144.479,112.132 144.646,116.799 145.5,121.5C 144.849,122.091 144.182,122.757 143.5,123.5C 140.468,115.541 135.968,114.541 130,120.5C 128.699,122.365 128.365,124.365 129,126.5C 132.214,128.861 134.381,131.861 135.5,135.5C 135.771,137.921 135.105,138.587 133.5,137.5C 132.614,138.325 132.281,139.325 132.5,140.5C 134.807,140.986 136.973,140.986 139,140.5C 140.045,141.373 140.878,142.373 141.5,143.5C 139.599,143.433 137.766,143.767 136,144.5C 130.819,143.104 125.986,141.104 121.5,138.5C 123.716,143.897 124.882,149.563 125,155.5C 125.519,154.484 126.353,153.818 127.5,153.5C 132.948,153.561 136.615,156.061 138.5,161C 138.167,161.5 137.833,162 137.5,162.5C 136.614,161.675 136.281,160.675 136.5,159.5C 134.208,159.756 132.041,159.423 130,158.5C 129.464,160.567 129.964,162.401 131.5,164C 131.167,164.167 130.833,164.333 130.5,164.5C 129.059,163.135 127.726,161.635 126.5,160C 125.207,159.51 123.873,159.343 122.5,159.5C 122.519,157.94 122.852,156.44 123.5,155C 123.164,153.97 122.497,153.47 121.5,153.5C 120.732,152.737 120.232,151.737 120,150.5C 119.259,151.641 118.425,151.641 117.5,150.5C 116.824,151.602 116.158,152.602 115.5,153.5C 115.565,153.062 115.399,152.728 115,152.5C 114.692,153.308 114.192,153.975 113.5,154.5C 112.548,152.955 112.215,151.288 112.5,149.5C 112.414,148.504 112.748,147.671 113.5,147C 112.551,146.383 111.718,146.549 111,147.5C 109.69,145.868 109.19,144.201 109.5,142.5C 108.286,144.859 108.286,147.192 109.5,149.5C 108.833,150.5 108.167,151.5 107.5,152.5C 106.25,152.423 105.417,151.756 105,150.5C 104.015,151.814 102.848,152.814 101.5,153.5C 98.9841,155.197 96.1508,156.53 93,157.5C 91.7147,157.05 90.548,156.383 89.5,155.5C 88.5,156.167 87.5,156.833 86.5,157.5C 84.5763,155.981 82.5763,154.647 80.5,153.5C 80.6104,150.941 79.9438,148.608 78.5,146.5C 75.1512,145.17 74.8179,145.67 77.5,148C 76.2805,149.795 75.2805,149.628 74.5,147.5C 73.8333,147.5 73.1667,147.5 72.5,147.5C 72.3601,145.876 73.0267,144.71 74.5,144C 74.1667,143.667 73.8333,143.333 73.5,143C 75.1667,142.667 76.8333,142.333 78.5,142C 77.5838,141.626 76.7504,141.126 76,140.5C 73.9935,141.669 71.8268,142.335 69.5,142.5C 69.5323,144.619 68.5323,145.952 66.5,146.5C 69.3102,139.385 74.6435,135.051 82.5,133.5C 84.5643,133.687 86.5643,134.187 88.5,135C 88.1667,135.333 87.8333,135.667 87.5,136C 90.6685,136.864 90.3352,138.197 86.5,140C 88.4211,140.36 90.0878,141.194 91.5,142.5C 91.1086,141.109 91.9419,140.109 94,139.5C 95.2917,140.791 96.4583,140.791 97.5,139.5C 98.3984,138.842 99.3984,138.176 100.5,137.5C 99.3318,136.094 99.6652,134.928 101.5,134C 100.619,133.292 99.9528,132.458 99.5,131.5C 100.338,131.158 100.672,130.492 100.5,129.5C 104.362,129.251 108.362,129.584 112.5,130.5C 113.984,127.619 113.317,125.286 110.5,123.5C 110.5,122.833 110.5,122.167 110.5,121.5C 110.804,120.85 111.137,120.183 111.5,119.5C 108.61,118.163 107.943,116.163 109.5,113.5C 112.259,113.548 115.092,113.882 118,114.5C 119.15,111.582 119.983,108.582 120.5,105.5C 123.125,104.559 123.125,103.393 120.5,102C 121.641,101.259 121.641,100.425 120.5,99.5C 121.684,97.9539 122.684,96.2873 123.5,94.5C 124.107,94.6236 124.44,94.9569 124.5,95.5C 124.196,96.1499 123.863,96.8165 123.5,97.5C 124.736,98.3567 126.069,99.0234 127.5,99.5C 127.833,99 128.167,98.5 128.5,98C 127.107,96.6992 126.607,95.1992 127,93.5C 132.613,92.3034 132.779,90.3034 127.5,87.5C 128.729,86.7189 130.062,86.2189 131.5,86C 129.616,85.7837 127.949,85.117 126.5,84C 127.308,83.6924 127.975,83.1924 128.5,82.5C 125.478,82.8252 123.812,81.1585 123.5,77.5C 121.335,73.1621 122.669,71.1621 127.5,71.5C 127.5,69.5 127.5,67.5 127.5,65.5C 132.811,66.0276 135.145,63.6943 134.5,58.5C 136.57,58.5514 138.403,57.8847 140,56.5C 140.772,56.6448 141.439,56.9781 142,57.5C 142.595,53.9178 143.929,53.5845 146,56.5C 146.182,53.7737 146.682,51.1071 147.5,48.5C 148.806,49.9122 149.64,51.5789 150,53.5C 150.176,50.1182 150.676,46.7848 151.5,43.5C 152.919,44.0047 153.585,45.0047 153.5,46.5 Z"/></g>
<g><path style="opacity:1" fill="#657479" d="M 153.5,46.5 C 154.167,47.8333 154.833,49.1667 155.5,50.5C 155.291,51.9217 154.791,53.255 154,54.5C 153.503,51.854 153.336,49.1873 153.5,46.5 Z"/></g>
<g><path style="opacity:1" fill="#627b83" d="M 92.5,112.5 C 91.3991,114.988 92.0657,116.988 94.5,118.5C 94.631,119.239 94.4643,119.906 94,120.5C 93.3109,119.643 92.4776,118.977 91.5,118.5C 89.5485,120.533 87.3818,120.866 85,119.5C 84.5304,118.423 84.6971,117.423 85.5,116.5C 85.811,115.522 86.4777,114.855 87.5,114.5C 87.6691,115.397 88.0024,116.397 88.5,117.5C 89.2811,116.271 89.7811,114.938 90,113.5C 90.6708,112.748 91.5041,112.414 92.5,112.5 Z"/></g>
<g><path style="opacity:1" fill="#a3c0c9" d="M 98.5,102.5 C 99.5309,104.882 100.864,107.216 102.5,109.5C 103.086,109.291 103.586,108.957 104,108.5C 105.704,110.373 107.537,112.04 109.5,113.5C 107.943,116.163 108.61,118.163 111.5,119.5C 111.137,120.183 110.804,120.85 110.5,121.5C 108.856,121.714 107.356,121.38 106,120.5C 104.294,121.308 103.461,122.641 103.5,124.5C 105.861,124.326 108.194,123.993 110.5,123.5C 113.317,125.286 113.984,127.619 112.5,130.5C 108.362,129.584 104.362,129.251 100.5,129.5C 99.4715,128.213 99.8048,127.046 101.5,126C 100.899,124.395 99.8993,123.062 98.5,122C 102.706,117.945 102.54,116.778 98,118.5C 96.7083,117.209 95.5417,117.209 94.5,118.5C 92.0657,116.988 91.3991,114.988 92.5,112.5C 93.9778,112.762 95.3112,112.429 96.5,111.5C 99.4327,109.262 99.0993,108.262 95.5,108.5C 95.7029,105.384 96.7029,103.384 98.5,102.5 Z"/></g>
<g><path style="opacity:1" fill="#1c3238" d="M 101.5,111.5 C 102.776,112.386 102.776,113.386 101.5,114.5C 100.438,113.575 100.438,112.575 101.5,111.5 Z"/></g>
<g><path style="opacity:1" fill="#192e35" d="M 110.5,121.5 C 110.5,122.167 110.5,122.833 110.5,123.5C 108.194,123.993 105.861,124.326 103.5,124.5C 103.461,122.641 104.294,121.308 106,120.5C 107.356,121.38 108.856,121.714 110.5,121.5 Z"/></g>
<g><path style="opacity:1" fill="#05080a" d="M 87.5,129.5 C 86.8333,129.5 86.5,129.833 86.5,130.5C 85.1283,131.512 83.795,132.512 82.5,133.5C 74.6435,135.051 69.3102,139.385 66.5,146.5C 66.5,146.833 66.5,147.167 66.5,147.5C 63.4898,150.193 61.1564,149.526 59.5,145.5C 60.4419,143.121 61.7753,140.954 63.5,139C 69.9969,135.586 76.3303,131.919 82.5,128C 84.6742,127.123 86.3409,127.623 87.5,129.5 Z"/></g>
<g><path style="opacity:1" fill="#3d555c" d="M 94.5,129.5 C 94.4338,131.083 94.7672,132.75 95.5,134.5C 92.2425,134.364 89.2425,133.031 86.5,130.5C 86.5,129.833 86.8333,129.5 87.5,129.5C 89.6793,129.74 92.0126,129.74 94.5,129.5 Z"/></g>
<g><path style="opacity:1" fill="#78939b" d="M 94.5,129.5 C 96.403,129.796 98.0697,130.463 99.5,131.5C 99.9528,132.458 100.619,133.292 101.5,134C 99.6652,134.928 99.3318,136.094 100.5,137.5C 99.3984,138.176 98.3984,138.842 97.5,139.5C 96.5028,139.53 95.8361,139.03 95.5,138C 96.6579,136.739 96.6579,135.573 95.5,134.5C 94.7672,132.75 94.4338,131.083 94.5,129.5 Z"/></g>
<g><path style="opacity:1" fill="#a0bdc6" d="M 86.5,130.5 C 89.2425,133.031 92.2425,134.364 95.5,134.5C 96.6579,135.573 96.6579,136.739 95.5,138C 95.8361,139.03 96.5028,139.53 97.5,139.5C 96.4583,140.791 95.2917,140.791 94,139.5C 91.9419,140.109 91.1086,141.109 91.5,142.5C 90.0878,141.194 88.4211,140.36 86.5,140C 90.3352,138.197 90.6685,136.864 87.5,136C 87.8333,135.667 88.1667,135.333 88.5,135C 86.5643,134.187 84.5643,133.687 82.5,133.5C 83.795,132.512 85.1283,131.512 86.5,130.5 Z"/></g>
<g><path style="opacity:1" fill="#1a2f36" d="M 128.5,137.5 C 130.465,137.948 130.798,138.948 129.5,140.5C 128.614,139.675 128.281,138.675 128.5,137.5 Z"/></g>
<g><path style="opacity:1" fill="#afcbd3" d="M 141.5,143.5 C 143.176,142.817 143.843,141.483 143.5,139.5C 146.685,139.02 149.519,139.686 152,141.5C 152.667,142.833 152.667,144.167 152,145.5C 150.246,143.75 148.079,143.083 145.5,143.5C 144.968,148.408 143.634,148.408 141.5,143.5 Z"/></g>
<g><path style="opacity:1" fill="#617a81" d="M 72.5,147.5 C 70.3888,146.62 68.3888,146.62 66.5,147.5C 66.5,147.167 66.5,146.833 66.5,146.5C 68.5323,145.952 69.5323,144.619 69.5,142.5C 71.8268,142.335 73.9935,141.669 76,140.5C 76.7504,141.126 77.5838,141.626 78.5,142C 76.8333,142.333 75.1667,142.667 73.5,143C 73.8333,143.333 74.1667,143.667 74.5,144C 73.0267,144.71 72.3601,145.876 72.5,147.5 Z"/></g>
<g><path style="opacity:1" fill="#374c52" d="M 112.5,149.5 C 111.5,148.167 110.5,148.167 109.5,149.5C 108.286,147.192 108.286,144.859 109.5,142.5C 109.19,144.201 109.69,145.868 111,147.5C 111.718,146.549 112.551,146.383 113.5,147C 112.748,147.671 112.414,148.504 112.5,149.5 Z"/></g>
<g><path style="opacity:1" fill="#3c535b" d="M 118.5,146.5 C 119.289,146.783 119.956,147.283 120.5,148C 116.566,150.221 115.899,149.721 118.5,146.5 Z"/></g>
<g><path style="opacity:1" fill="#95adb5" d="M 136.5,147.5 C 138.599,148.861 140.599,150.361 142.5,152C 139.273,152.287 137.273,150.787 136.5,147.5 Z"/></g>
<g><path style="opacity:1" fill="#6a7c81" d="M 107.5,152.5 C 105.735,153.461 103.735,153.795 101.5,153.5C 102.848,152.814 104.015,151.814 105,150.5C 105.417,151.756 106.25,152.423 107.5,152.5 Z"/></g>
<g><path style="opacity:1" fill="#6d878f" d="M 80.5,153.5 C 79.3622,155.441 77.6955,155.608 75.5,154C 74.5769,151.959 74.2436,149.792 74.5,147.5C 75.2805,149.628 76.2805,149.795 77.5,148C 74.8179,145.67 75.1512,145.17 78.5,146.5C 79.9438,148.608 80.6104,150.941 80.5,153.5 Z"/></g>
<g><path style="opacity:1" fill="#6b8289" d="M 121.5,153.5 C 121.03,154.693 120.03,155.36 118.5,155.5C 116.97,155.36 115.97,154.693 115.5,153.5C 116.158,152.602 116.824,151.602 117.5,150.5C 118.425,151.641 119.259,151.641 120,150.5C 120.232,151.737 120.732,152.737 121.5,153.5 Z"/></g>
</svg>
