<?xml version="1.0" encoding="UTF-8"?>
<!DOCTYPE svg PUBLIC "-//W3C//DTD SVG 1.1//EN" "http://www.w3.org/Graphics/SVG/1.1/DTD/svg11.dtd">
<svg xmlns="http://www.w3.org/2000/svg" version="1.1" width="200px" height="200px" style="shape-rendering:geometricPrecision; text-rendering:geometricPrecision; image-rendering:optimizeQuality; fill-rule:evenodd; clip-rule:evenodd" xmlns:xlink="http://www.w3.org/1999/xlink">
<g><path style="opacity:0.004" fill="#57666a" d="M 42.5,8.5 C 43.8333,9.16667 43.8333,9.16667 42.5,8.5 Z"/></g>
<g><path style="opacity:0.004" fill="#57666a" d="M 40.5,9.5 C 41.8333,10.1667 41.8333,10.1667 40.5,9.5 Z"/></g>
<g><path style="opacity:0.007" fill="#344144" d="M 62.5,12.5 C 62.1667,12.5 61.8333,12.5 61.5,12.5C 60.7375,11.7321 59.7375,11.2321 58.5,11C 60.4628,10.1558 61.7961,10.6558 62.5,12.5 Z"/></g>
<g><path style="opacity:0.007" fill="#344144" d="M 47.5,12.5 C 48.2506,11.4265 49.2506,11.2599 50.5,12C 49.552,12.4828 48.552,12.6495 47.5,12.5 Z"/></g>
<g><path style="opacity:0.004" fill="#5b6b6f" d="M 53.5,11.5 C 54.8333,12.1667 54.8333,12.1667 53.5,11.5 Z"/></g>
<g><path style="opacity:0.004" fill="#5b6b6f" d="M 42.5,12.5 C 43.8333,13.1667 43.8333,13.1667 42.5,12.5 Z"/></g>
<g><path style="opacity:0.004" fill="#59686c" d="M 40.5,14.5 C 39.8333,13.1667 39.8333,13.1667 40.5,14.5 Z"/></g>
<g><path style="opacity:0.004" fill="#5a696d" d="M 40.5,14.5 C 41.8333,15.1667 41.8333,15.1667 40.5,14.5 Z"/></g>
<g><path style="opacity:0.992" fill="#0a0e10" d="M 61.5,12.5 C 61.8333,13.8333 62.1667,13.8333 62.5,12.5C 63.1174,12.6107 63.6174,12.944 64,13.5C 64.498,16.4816 64.6646,19.4816 64.5,22.5C 63.5489,23.9187 63.2155,25.5853 63.5,27.5C 63.5,27.8333 63.5,28.1667 63.5,28.5C 62.8418,29.7933 62.5085,31.2933 62.5,33C 62.4078,35.8211 63.0744,38.3211 64.5,40.5C 64.7845,42.4147 64.4511,44.0813 63.5,45.5C 61.481,39.5858 59.6477,33.5858 58,27.5C 57.586,27.0426 57.086,26.7093 56.5,26.5C 55.9816,32.3262 56.9816,37.9929 59.5,43.5C 58.7261,44.7112 57.8928,44.7112 57,43.5C 55.9196,41.0038 54.5862,38.6705 53,36.5C 52.3076,37.0253 51.8076,37.6919 51.5,38.5C 52.5,40.5 53.5,42.5 54.5,44.5C 54.1667,44.8333 53.8333,45.1667 53.5,45.5C 51.7089,43.5867 49.7089,41.92 47.5,40.5C 46.3338,42.3649 46.6671,44.0316 48.5,45.5C 44.5753,49.796 44.5753,54.1293 48.5,58.5C 45.0659,62.1992 43.8993,66.5325 45,71.5C 48.1667,72.6667 48.3333,74.1667 45.5,76C 46.4693,81.7722 49.136,86.6055 53.5,90.5C 52.6171,91.548 51.9504,92.7147 51.5,94C 53.0903,97.0133 54.257,100.18 55,103.5C 58.1374,106.056 60.3041,108.723 61.5,111.5C 60.1266,111.657 58.7932,111.49 57.5,111C 55.9625,109.293 54.2959,107.793 52.5,106.5C 52.5,105.833 52.1667,105.5 51.5,105.5C 50.8106,104.226 49.9772,104.226 49,105.5C 46.8322,104.371 46.3322,102.871 47.5,101C 44.3927,100.092 42.7261,97.5922 42.5,93.5C 43.8333,92.8333 43.8333,92.1667 42.5,91.5C 42.3184,89.4086 42.6518,87.4086 43.5,85.5C 43.1924,84.6919 42.6924,84.0253 42,83.5C 41.2303,84.5981 40.397,84.5981 39.5,83.5C 39.4257,81.5891 38.4257,80.4224 36.5,80C 37.056,79.6174 37.3893,79.1174 37.5,78.5C 38.8333,77.8333 38.8333,77.1667 37.5,76.5C 37.6716,75.5084 37.3382,74.8417 36.5,74.5C 36.1667,73.1667 35.8333,73.1667 35.5,74.5C 34.5655,73.4324 34.2322,72.099 34.5,70.5C 35.8333,69.5 35.8333,68.5 34.5,67.5C 34.5663,62.4983 34.5663,57.4983 34.5,52.5C 35.6651,51.4164 36.9984,50.5831 38.5,50C 33.0499,49.0252 32.3833,46.3585 36.5,42C 35.4086,39.9361 35.2419,37.7695 36,35.5C 36.8928,36.7112 37.7261,36.7112 38.5,35.5C 37.6852,33.7241 36.5185,33.0574 35,33.5C 34.4674,29.1471 34.8007,28.8138 36,32.5C 36.4828,31.552 36.6495,30.552 36.5,29.5C 37.8333,29.5 39.1667,29.5 40.5,29.5C 40.8333,30.8333 41.1667,30.8333 41.5,29.5C 42.2679,28.7375 42.7679,27.7375 43,26.5C 44.3024,25.9152 45.469,25.2485 46.5,24.5C 47.8333,23.8333 47.8333,23.1667 46.5,22.5C 46.2229,19.5525 46.5562,16.7191 47.5,14C 49.2588,13.2025 50.9255,13.3691 52.5,14.5C 51.0892,16.0175 51.2559,17.3508 53,18.5C 54.7398,17.2842 55.7398,15.6175 56,13.5C 56.805,15.9011 57.6383,15.7344 58.5,13C 59.448,12.5172 60.448,12.3505 61.5,12.5 Z"/></g>
<g><path style="opacity:0.008" fill="#2b363a" d="M 44.5,14.5 C 45.525,14.8966 45.6917,15.5632 45,16.5C 44.5357,15.9056 44.369,15.2389 44.5,14.5 Z"/></g>
<g><path style="opacity:0.004" fill="#556467" d="M 68.5,15.5 C 69.8333,16.1667 69.8333,16.1667 68.5,15.5 Z"/></g>
<g><path style="opacity:0.004" fill="#5e6e72" d="M 72.5,17.5 C 73.8333,18.1667 73.8333,18.1667 72.5,17.5 Z"/></g>
<g><path style="opacity:0.004" fill="#627377" d="M 42.5,19.5 C 43.8333,20.1667 43.8333,20.1667 42.5,19.5 Z"/></g>
<g><path style="opacity:0.016" fill="#3a474b" d="M 45.5,22.5 C 44.4017,21.3991 44.235,20.0657 45,18.5C 45.49,19.7932 45.6567,21.1266 45.5,22.5 Z"/></g>
<g><path style="opacity:0.004" fill="#273234" d="M 70.5,19.5 C 71.8333,20.1667 71.8333,20.1667 70.5,19.5 Z"/></g>
<g><path style="opacity:0.004" fill="#65777b" d="M 41.5,23.5 C 40.8333,22.1667 40.8333,22.1667 41.5,23.5 Z"/></g>
<g><path style="opacity:0.995" fill="#0e1215" d="M 70.5,20.5 C 71.8609,24.8457 72.8609,29.179 73.5,33.5C 73.0226,39.5111 72.356,45.5111 71.5,51.5C 70.5726,49.8872 69.7393,48.2205 69,46.5C 68.6667,39.8333 68.3333,33.1667 68,26.5C 67.3292,25.7476 66.4959,25.4142 65.5,25.5C 64.8902,24.609 64.5569,23.609 64.5,22.5C 66.4977,22.6618 68.4977,21.9951 70.5,20.5 Z"/></g>
<g><path style="opacity:0.016" fill="#161e21" d="M 73.5,23.5 C 72.475,23.1034 72.3083,22.4368 73,21.5C 73.4643,22.0944 73.631,22.7611 73.5,23.5 Z"/></g>
<g><path style="opacity:0.004" fill="#66787d" d="M 76.5,22.5 C 77.8333,23.1667 77.8333,23.1667 76.5,22.5 Z"/></g>
<g><path style="opacity:0.004" fill="#607074" d="M 41.5,23.5 C 42.8333,24.1667 42.8333,24.1667 41.5,23.5 Z"/></g>
<g><path style="opacity:0.02" fill="#384347" d="M 45.5,22.5 C 45.8333,22.5 46.1667,22.5 46.5,22.5C 46.5,23.1667 46.5,23.8333 46.5,24.5C 43.075,24.6332 42.7417,23.9665 45.5,22.5 Z"/></g>
<g><path style="opacity:0.004" fill="#6b7e83" d="M 35.5,25.5 C 36.8333,26.1667 36.8333,26.1667 35.5,25.5 Z"/></g>
<g><path style="opacity:0.006" fill="#2c373c" d="M 73.5,23.5 C 74.2161,25.5563 74.8828,27.723 75.5,30C 74.944,30.3826 74.6107,30.8826 74.5,31.5C 73.5269,29.0521 73.1936,26.3854 73.5,23.5 Z"/></g>
<g><path style="opacity:0.006" fill="#3c484c" d="M 41.5,29.5 C 41.1667,29.5 40.8333,29.5 40.5,29.5C 39.3915,28.71 38.0581,28.21 36.5,28C 37.3333,27.8333 38.1667,27.6667 39,27.5C 40.3756,27.6842 41.2089,28.3509 41.5,29.5 Z"/></g>
<g><path style="opacity:0.004" fill="#6f8186" d="M 151.5,27.5 C 152.833,28.1667 152.833,28.1667 151.5,27.5 Z"/></g>
<g><path style="opacity:0.012" fill="#6f8087" d="M 152.5,31.5 C 152.897,30.475 153.563,30.3083 154.5,31C 153.906,31.4643 153.239,31.631 152.5,31.5 Z"/></g>
<g><path style="opacity:0.004" fill="#778b90" d="M 156.5,30.5 C 157.833,31.1667 157.833,31.1667 156.5,30.5 Z"/></g>
<g><path style="opacity:0.013" fill="#64767b" d="M 159.5,31.5 C 160.601,30.4017 161.934,30.235 163.5,31C 162.207,31.49 160.873,31.6567 159.5,31.5 Z"/></g>
<g><path style="opacity:0.004" fill="#768a8f" d="M 165.5,30.5 C 166.833,31.1667 166.833,31.1667 165.5,30.5 Z"/></g>
<g><path style="opacity:0.995" fill="#bdd5dd" d="M 65.5,25.5 C 66.4959,25.4142 67.3292,25.7476 68,26.5C 68.3333,33.1667 68.6667,39.8333 69,46.5C 69.7393,48.2205 70.5726,49.8872 71.5,51.5C 72.356,45.5111 73.0226,39.5111 73.5,33.5C 73.8333,32.8333 74.1667,32.1667 74.5,31.5C 75.8311,32.9879 77.1645,33.6545 78.5,33.5C 77.0908,39.8672 77.2575,46.2005 79,52.5C 79.3333,51.5 79.6667,50.5 80,49.5C 80.8007,52.367 80.6341,55.0336 79.5,57.5C 79.8404,55.4524 79.5071,54.4524 78.5,54.5C 76.8333,54.5 75.1667,54.5 73.5,54.5C 72.9232,57.5497 74.0899,59.5497 77,60.5C 78.7411,63.3093 79.9078,66.3093 80.5,69.5C 78.9148,71.9817 76.9148,72.6484 74.5,71.5C 75.3764,71.6309 76.0431,71.2975 76.5,70.5C 76.6095,66.3943 74.9428,65.7276 71.5,68.5C 71.5983,65.7524 70.5983,65.0857 68.5,66.5C 67.1667,65.8333 67.1667,65.1667 68.5,64.5C 69.9953,64.5852 70.9953,63.9185 71.5,62.5C 71.1667,60.5 70.8333,58.5 70.5,56.5C 71.8532,55.4763 72.5198,54.143 72.5,52.5C 71.5,52.5 70.5,52.5 69.5,52.5C 69.0984,48.6465 67.0984,46.3132 63.5,45.5C 64.4511,44.0813 64.7845,42.4147 64.5,40.5C 64.5029,35.4725 64.8363,30.4725 65.5,25.5 Z"/></g>
<g><path style="opacity:0.004" fill="#798e94" d="M 145.5,34.5 C 144.833,33.1667 144.833,33.1667 145.5,34.5 Z"/></g>
<g><path style="opacity:0.004" fill="#798e94" d="M 145.5,34.5 C 146.525,34.8966 146.692,35.5632 146,36.5C 145.536,35.9056 145.369,35.2389 145.5,34.5 Z"/></g>
<g><path style="opacity:0.516" fill="#505d61" d="M 65.5,25.5 C 64.8363,30.4725 64.5029,35.4725 64.5,40.5C 63.0744,38.3211 62.4078,35.8211 62.5,33C 62.5085,31.2933 62.8418,29.7933 63.5,28.5C 63.5,28.1667 63.5,27.8333 63.5,27.5C 64.1667,26.8333 64.8333,26.1667 65.5,25.5 Z"/></g>
<g><path style="opacity:0.012" fill="#566469" d="M 149.5,37.5 C 148.499,36.2113 148.666,34.8779 150,33.5C 150.765,35.0657 150.598,36.3991 149.5,37.5 Z"/></g>
<g><path style="opacity:0.016" fill="#1a2024" d="M 164.5,37.5 C 164.833,37.5 165.167,37.5 165.5,37.5C 165.768,39.099 165.434,40.4324 164.5,41.5C 164.5,40.1667 164.5,38.8333 164.5,37.5 Z"/></g>
<g><path style="opacity:0.004" fill="#7f959b" d="M 138.5,40.5 C 139.833,41.1667 139.833,41.1667 138.5,40.5 Z"/></g>
<g><path style="opacity:0.004" fill="#81979d" d="M 135.5,42.5 C 136.525,42.8966 136.692,43.5632 136,44.5C 135.536,43.9056 135.369,43.2389 135.5,42.5 Z"/></g>
<g><path style="opacity:0.016" fill="#7a8e95" d="M 145.5,39.5 C 145.5,39.8333 145.5,40.1667 145.5,40.5C 145.5,41.1667 145.5,41.8333 145.5,42.5C 145.5,42.8333 145.5,43.1667 145.5,43.5C 144.761,43.631 144.094,43.4643 143.5,43C 144.085,41.6976 144.751,40.531 145.5,39.5 Z"/></g>
<g><path style="opacity:0.996" fill="#c9e6ef" d="M 63.5,45.5 C 67.0984,46.3132 69.0984,48.6465 69.5,52.5C 69.7852,54.288 69.4519,55.9547 68.5,57.5C 67.7492,56.624 67.2492,55.624 67,54.5C 66.2904,55.9733 65.1238,56.6399 63.5,56.5C 63.5,57.8333 63.5,59.1667 63.5,60.5C 65.1667,60.5 66.8333,60.5 68.5,60.5C 68.5,61.8333 68.5,63.1667 68.5,64.5C 67.1667,65.1667 67.1667,65.8333 68.5,66.5C 68.8212,68.0481 69.8212,68.7148 71.5,68.5C 71.5,70.5 72.5,71.5 74.5,71.5C 76.9148,72.6484 78.9148,71.9817 80.5,69.5C 80.8333,69.5 81.1667,69.5 81.5,69.5C 80.8519,71.0858 80.3519,72.7525 80,74.5C 78.9505,73.4829 77.7839,73.3162 76.5,74C 77.8141,74.985 78.8141,76.1516 79.5,77.5C 80.1667,77.8333 80.8333,78.1667 81.5,78.5C 86.7581,77.2497 87.4247,78.4164 83.5,82C 84.2266,83.3988 84.7266,84.8988 85,86.5C 85.6708,87.2524 86.5041,87.5858 87.5,87.5C 86.7701,88.7124 85.7701,89.7124 84.5,90.5C 86.396,91.4656 88.396,91.7989 90.5,91.5C 91.2096,94.8595 89.8762,96.6929 86.5,97C 88.3699,98.1348 90.3699,98.9681 92.5,99.5C 93.8333,99.5 95.1667,99.5 96.5,99.5C 96.5,100.167 96.8333,100.5 97.5,100.5C 98.7175,101.161 100.051,101.828 101.5,102.5C 101.376,103.107 101.043,103.44 100.5,103.5C 100.5,102.833 100.167,102.5 99.5,102.5C 98.6906,103.469 97.6906,104.302 96.5,105C 97.5,105.333 98.5,105.667 99.5,106C 98.062,106.219 96.7287,106.719 95.5,107.5C 96.6507,108.731 97.8173,108.731 99,107.5C 99.9947,108.066 100.828,108.733 101.5,109.5C 100.448,109.771 99.1147,109.938 97.5,110C 99.1654,111.826 100.165,113.993 100.5,116.5C 97.7649,118.252 95.2649,117.586 93,114.5C 92.6667,114.833 92.3333,115.167 92,115.5C 91.7351,113.837 92.2351,112.337 93.5,111C 93,110.5 92.5,110 92,109.5C 90.6236,112.053 89.4569,114.72 88.5,117.5C 88.0024,116.397 87.6691,115.397 87.5,114.5C 84.556,115.368 83.556,117.035 84.5,119.5C 81.8872,120.435 79.2205,120.602 76.5,120C 77.5,119.667 78.5,119.333 79.5,119C 77.5643,118.187 75.5643,117.687 73.5,117.5C 73.5,117.167 73.5,116.833 73.5,116.5C 74.6921,115.434 74.3588,114.601 72.5,114C 70.9343,113.235 69.6009,113.402 68.5,114.5C 67.1667,114.5 65.8333,114.5 64.5,114.5C 63.6935,113.272 62.6935,112.272 61.5,111.5C 60.3041,108.723 58.1374,106.056 55,103.5C 54.257,100.18 53.0903,97.0133 51.5,94C 51.9504,92.7147 52.6171,91.548 53.5,90.5C 49.136,86.6055 46.4693,81.7722 45.5,76C 48.3333,74.1667 48.1667,72.6667 45,71.5C 43.8993,66.5325 45.0659,62.1992 48.5,58.5C 44.5753,54.1293 44.5753,49.796 48.5,45.5C 46.6671,44.0316 46.3338,42.3649 47.5,40.5C 49.7089,41.92 51.7089,43.5867 53.5,45.5C 53.8333,45.1667 54.1667,44.8333 54.5,44.5C 53.5,42.5 52.5,40.5 51.5,38.5C 51.8076,37.6919 52.3076,37.0253 53,36.5C 54.5862,38.6705 55.9196,41.0038 57,43.5C 57.8928,44.7112 58.7261,44.7112 59.5,43.5C 56.9816,37.9929 55.9816,32.3262 56.5,26.5C 57.086,26.7093 57.586,27.0426 58,27.5C 59.6477,33.5858 61.481,39.5858 63.5,45.5 Z"/></g>
<g><path style="opacity:0.995" fill="#0e1214" d="M 165.5,37.5 C 165.167,33.5 164.833,33.5 164.5,37.5C 163.167,38.8333 163.167,40.1667 164.5,41.5C 164.737,42.791 164.404,43.791 163.5,44.5C 163.167,43.1667 162.833,43.1667 162.5,44.5C 162.167,44.5 161.833,44.5 161.5,44.5C 156.981,43.3751 154.981,45.3751 155.5,50.5C 154.833,49.1667 154.167,47.8333 153.5,46.5C 153.585,45.0047 152.919,44.0047 151.5,43.5C 150.676,46.7848 150.176,50.1182 150,53.5C 149.64,51.5789 148.806,49.9122 147.5,48.5C 146.682,51.1071 146.182,53.7737 146,56.5C 145.311,55.6433 144.478,54.9767 143.5,54.5C 140.786,56.536 137.786,57.8693 134.5,58.5C 135.145,63.6943 132.811,66.0276 127.5,65.5C 127.5,67.5 127.5,69.5 127.5,71.5C 126.167,71.5 124.833,71.5 123.5,71.5C 123.5,73.5 123.5,75.5 123.5,77.5C 122.687,79.2608 121.687,80.9275 120.5,82.5C 119.292,81.7659 117.959,81.4326 116.5,81.5C 116.5,80.5 116.5,79.5 116.5,78.5C 117.338,78.1583 117.672,77.4916 117.5,76.5C 117.918,75.7784 118.584,75.2784 119.5,75C 118.833,74.6667 118.167,74.3333 117.5,74C 118.191,72.9326 118.691,71.7659 119,70.5C 119.984,72.7947 120.817,72.4614 121.5,69.5C 120.965,67.7295 120.131,67.3961 119,68.5C 118.333,67.1667 118.333,65.8333 119,64.5C 119.333,64.8333 119.667,65.1667 120,65.5C 122.035,63.383 124.201,62.383 126.5,62.5C 125.675,61.6143 124.675,61.281 123.5,61.5C 123.238,60.0222 123.571,58.6888 124.5,57.5C 127.598,57.869 130.598,57.0357 133.5,55C 131.717,53.9335 131.217,52.4335 132,50.5C 132.667,54.5 133.333,54.5 134,50.5C 135.255,49.7894 136.421,48.956 137.5,48C 137.167,47.6667 136.833,47.3333 136.5,47C 140.134,46.8444 143.467,45.8444 146.5,44C 146.272,43.6012 145.938,43.4346 145.5,43.5C 145.5,43.1667 145.5,42.8333 145.5,42.5C 146.833,41.8333 146.833,41.1667 145.5,40.5C 145.5,40.1667 145.5,39.8333 145.5,39.5C 146.817,39.6869 148.15,39.0202 149.5,37.5C 149.783,38.2891 150.283,38.9558 151,39.5C 151.333,37.5 151.667,35.5 152,33.5C 153.587,32.273 154.921,32.6063 156,34.5C 158.644,32.9257 161.644,32.259 165,32.5C 166.677,34.1484 166.844,35.8151 165.5,37.5 Z"/></g>
<g><path style="opacity:0.004" fill="#849aa0" d="M 32.5,49.5 C 33.8333,50.1667 33.8333,50.1667 32.5,49.5 Z"/></g>
<g><path style="opacity:0.004" fill="#657c82" d="M 162.5,51.5 C 163.833,52.1667 163.833,52.1667 162.5,51.5 Z"/></g>
<g><path style="opacity:0.004" fill="#91aab1" d="M 129.5,52.5 C 130.833,53.1667 130.833,53.1667 129.5,52.5 Z"/></g>
<g><path style="opacity:0.996" fill="#c6e2eb" d="M 153.5,46.5 C 153.336,49.1873 153.503,51.854 154,54.5C 154.791,53.255 155.291,51.9217 155.5,50.5C 154.981,45.3751 156.981,43.3751 161.5,44.5C 161.833,47.1667 162.167,47.1667 162.5,44.5C 162.833,44.5 163.167,44.5 163.5,44.5C 163.611,45.1174 163.944,45.6174 164.5,46C 162.845,47.4443 162.178,49.2776 162.5,51.5C 160.554,53.734 159.387,56.4006 159,59.5C 158.667,59.1667 158.333,58.8333 158,58.5C 157.167,60 156,61.1667 154.5,62C 155.872,62.6309 157.205,63.2975 158.5,64C 157.685,65.9802 156.352,67.4802 154.5,68.5C 154.167,67.1667 153.833,67.1667 153.5,68.5C 152.833,68.5 152.5,68.8333 152.5,69.5C 151.833,69.5 151.5,69.8333 151.5,70.5C 150.508,70.3284 149.842,70.6618 149.5,71.5C 148.508,71.3284 147.842,71.6618 147.5,72.5C 146.167,72.8333 146.167,73.1667 147.5,73.5C 146.5,75.8333 144.833,77.5 142.5,78.5C 142.167,77.1667 141.833,77.1667 141.5,78.5C 140.167,79.1667 140.167,79.8333 141.5,80.5C 140.863,83.456 140.363,86.456 140,89.5C 139.667,87.5 139.333,85.5 139,83.5C 138.362,86.5358 138.528,89.5358 139.5,92.5C 139.253,93.7133 138.586,94.38 137.5,94.5C 137.167,93.1667 136.833,93.1667 136.5,94.5C 135.833,94.8333 135.167,95.1667 134.5,95.5C 134.189,94.5222 133.522,93.8555 132.5,93.5C 131.359,96.0618 130.526,98.7284 130,101.5C 128.236,101.011 126.736,101.011 125.5,101.5C 123.088,101.306 122.088,99.9726 122.5,97.5C 122.281,96.325 122.614,95.325 123.5,94.5C 124.59,95.3914 124.59,96.3914 123.5,97.5C 124.736,98.3567 126.069,99.0234 127.5,99.5C 127.833,99 128.167,98.5 128.5,98C 127.293,96.6998 126.626,95.1998 126.5,93.5C 132.759,92.6459 133.092,90.6459 127.5,87.5C 128.729,86.7189 130.062,86.2189 131.5,86C 129.616,85.7837 127.949,85.117 126.5,84C 127.308,83.6924 127.975,83.1924 128.5,82.5C 125.478,82.8252 123.812,81.1585 123.5,77.5C 123.5,75.5 123.5,73.5 123.5,71.5C 124.833,71.5 126.167,71.5 127.5,71.5C 127.5,69.5 127.5,67.5 127.5,65.5C 132.811,66.0276 135.145,63.6943 134.5,58.5C 137.786,57.8693 140.786,56.536 143.5,54.5C 144.478,54.9767 145.311,55.6433 146,56.5C 146.182,53.7737 146.682,51.1071 147.5,48.5C 148.806,49.9122 149.64,51.5789 150,53.5C 150.176,50.1182 150.676,46.7848 151.5,43.5C 152.919,44.0047 153.585,45.0047 153.5,46.5 Z"/></g>
<g><path style="opacity:0.996" fill="#62757d" d="M 153.5,46.5 C 154.167,47.8333 154.833,49.1667 155.5,50.5C 155.291,51.9217 154.791,53.255 154,54.5C 153.503,51.854 153.336,49.1873 153.5,46.5 Z"/></g>
<g><path style="opacity:0.004" fill="#879ea4" d="M 82.5,54.5 C 83.8333,55.1667 83.8333,55.1667 82.5,54.5 Z"/></g>
<g><path style="opacity:0.004" fill="#889fa5" d="M 82.5,56.5 C 83.8333,57.1667 83.8333,57.1667 82.5,56.5 Z"/></g>
<g><path style="opacity:0.004" fill="#889fa5" d="M 85.5,59.5 C 84.8333,58.1667 84.8333,58.1667 85.5,59.5 Z"/></g>
<g><path style="opacity:0.004" fill="#869ca2" d="M 86.5,58.5 C 87.8333,59.1667 87.8333,59.1667 86.5,58.5 Z"/></g>
<g><path style="opacity:0.996" fill="#294249" d="M 69.5,52.5 C 70.5,52.5 71.5,52.5 72.5,52.5C 72.5198,54.143 71.8532,55.4763 70.5,56.5C 70.8333,58.5 71.1667,60.5 71.5,62.5C 70.9953,63.9185 69.9953,64.5852 68.5,64.5C 68.5,63.1667 68.5,61.8333 68.5,60.5C 66.8333,60.5 65.1667,60.5 63.5,60.5C 63.5,59.1667 63.5,57.8333 63.5,56.5C 65.1238,56.6399 66.2904,55.9733 67,54.5C 67.2492,55.624 67.7492,56.624 68.5,57.5C 69.4519,55.9547 69.7852,54.288 69.5,52.5 Z"/></g>
<g><path style="opacity:0.004" fill="#88a0a6" d="M 85.5,59.5 C 85.8333,59.5 86.1667,59.5 86.5,59.5C 86.3147,60.1701 85.9813,60.1701 85.5,59.5 Z"/></g>
<g><path style="opacity:0.478" fill="#45585e" d="M 78.5,54.5 C 78.2627,55.791 78.596,56.791 79.5,57.5C 80.979,59.723 82.3123,62.0564 83.5,64.5C 82.4848,65.4602 82.4848,66.6269 83.5,68C 83.1639,69.0299 82.4972,69.5299 81.5,69.5C 81.1667,69.5 80.8333,69.5 80.5,69.5C 79.9078,66.3093 78.7411,63.3093 77,60.5C 74.0899,59.5497 72.9232,57.5497 73.5,54.5C 75.1667,54.5 76.8333,54.5 78.5,54.5 Z"/></g>
<g><path style="opacity:0.996" fill="#253e46" d="M 71.5,68.5 C 69.8212,68.7148 68.8212,68.0481 68.5,66.5C 70.5983,65.0857 71.5983,65.7524 71.5,68.5 Z"/></g>
<g><path style="opacity:0.996" fill="#1f373f" d="M 74.5,71.5 C 72.5,71.5 71.5,70.5 71.5,68.5C 74.9428,65.7276 76.6095,66.3943 76.5,70.5C 76.0431,71.2975 75.3764,71.6309 74.5,71.5 Z"/></g>
<g><path style="opacity:0.004" fill="#8da6ac" d="M 157.5,67.5 C 158.833,68.1667 158.833,68.1667 157.5,67.5 Z"/></g>
<g><path style="opacity:0.01" fill="#7d9198" d="M 34.5,67.5 C 34.5,68.5 34.5,69.5 34.5,70.5C 33.1667,69.5 33.1667,68.5 34.5,67.5 Z"/></g>
<g><path style="opacity:0.008" fill="#c3e0e6" d="M 153.5,68.5 C 153.833,68.5 154.167,68.5 154.5,68.5C 154.315,69.1701 153.981,69.1701 153.5,68.5 Z"/></g>
<g><path style="opacity:0.016" fill="#c2dee5" d="M 152.5,69.5 C 152.833,69.5 153.167,69.5 153.5,69.5C 153.315,70.1701 152.981,70.1701 152.5,69.5 Z"/></g>
<g><path style="opacity:0.004" fill="#c2dee4" d="M 151.5,70.5 C 151.833,70.5 152.167,70.5 152.5,70.5C 152.315,71.1701 151.981,71.1701 151.5,70.5 Z"/></g>
<g><path style="opacity:0.004" fill="#869ea4" d="M 158.5,70.5 C 159.833,71.1667 159.833,71.1667 158.5,70.5 Z"/></g>
<g><path style="opacity:0.004" fill="#c0dbe2" d="M 149.5,72.5 C 149.5,72.1667 149.5,71.8333 149.5,71.5C 150.167,71.5 150.833,71.5 151.5,71.5C 151.158,72.3382 150.492,72.6716 149.5,72.5 Z"/></g>
<g><path style="opacity:0.004" fill="#c0dbe3" d="M 147.5,73.5 C 147.5,73.1667 147.5,72.8333 147.5,72.5C 148.167,72.5 148.833,72.5 149.5,72.5C 149.158,73.3382 148.492,73.6716 147.5,73.5 Z"/></g>
<g><path style="opacity:0.004" fill="#7f959b" d="M 94.5,74.5 C 95.8333,75.1667 95.8333,75.1667 94.5,74.5 Z"/></g>
<g><path style="opacity:0.012" fill="#293236" d="M 35.5,74.5 C 35.8333,74.5 36.1667,74.5 36.5,74.5C 36.5,75.1667 36.5,75.8333 36.5,76.5C 35.6618,76.1583 35.3284,75.4916 35.5,74.5 Z"/></g>
<g><path style="opacity:0.996" fill="#1f3b43" d="M 81.5,78.5 C 80.8333,78.1667 80.1667,77.8333 79.5,77.5C 80.3013,75.2071 80.968,75.5404 81.5,78.5 Z"/></g>
<g><path style="opacity:0.012" fill="#252d31" d="M 36.5,76.5 C 36.8333,76.5 37.1667,76.5 37.5,76.5C 37.5,77.1667 37.5,77.8333 37.5,78.5C 36.6618,78.1583 36.3284,77.4916 36.5,76.5 Z"/></g>
<g><path style="opacity:0.008" fill="#8da2aa" d="M 90.5,76.5 C 91.525,76.8966 91.6917,77.5632 91,78.5C 90.5357,77.9056 90.369,77.2389 90.5,76.5 Z"/></g>
<g><path style="opacity:0.008" fill="#bfdbe3" d="M 141.5,78.5 C 141.833,78.5 142.167,78.5 142.5,78.5C 142.672,79.4916 142.338,80.1583 141.5,80.5C 141.5,79.8333 141.5,79.1667 141.5,78.5 Z"/></g>
<g><path style="opacity:0.004" fill="#869da4" d="M 148.5,78.5 C 149.833,79.1667 149.833,79.1667 148.5,78.5 Z"/></g>
<g><path style="opacity:0.004" fill="#869ca1" d="M 38.5,83.5 C 37.8333,82.1667 37.8333,82.1667 38.5,83.5 Z"/></g>
<g><path style="opacity:0.004" fill="#76898e" d="M 38.5,83.5 C 38.8333,83.5 39.1667,83.5 39.5,83.5C 39.3147,84.1701 38.9813,84.1701 38.5,83.5 Z"/></g>
<g><path style="opacity:0.996" fill="#38535c" d="M 79.5,82.5 C 82.7567,84.155 82.9234,85.8217 80,87.5C 79.5065,85.8659 79.3398,84.1992 79.5,82.5 Z"/></g>
<g><path style="opacity:0.993" fill="#b0ccd5" d="M 83.5,64.5 C 84.6885,65.0476 85.8552,65.3809 87,65.5C 88.1054,69.2028 89.2721,72.8695 90.5,76.5C 89.2897,78.1764 89.7897,79.5097 92,80.5C 92.3333,80.1667 92.6667,79.8333 93,79.5C 93.3603,81.4211 94.1936,83.0878 95.5,84.5C 94.6906,86.0709 94.3573,87.7376 94.5,89.5C 94.5,89.8333 94.5,90.1667 94.5,90.5C 93.5084,90.3284 92.8417,90.6618 92.5,91.5C 91.2241,92.3864 91.2241,93.3864 92.5,94.5C 94.1227,93.5092 95.1227,94.1759 95.5,96.5C 94.0065,97.1411 93.0065,98.1411 92.5,99.5C 90.3699,98.9681 88.3699,98.1348 86.5,97C 89.8762,96.6929 91.2096,94.8595 90.5,91.5C 88.396,91.7989 86.396,91.4656 84.5,90.5C 85.7701,89.7124 86.7701,88.7124 87.5,87.5C 86.5041,87.5858 85.6708,87.2524 85,86.5C 84.7266,84.8988 84.2266,83.3988 83.5,82C 87.4247,78.4164 86.7581,77.2497 81.5,78.5C 80.968,75.5404 80.3013,75.2071 79.5,77.5C 78.8141,76.1516 77.8141,74.985 76.5,74C 77.7839,73.3162 78.9505,73.4829 80,74.5C 80.3519,72.7525 80.8519,71.0858 81.5,69.5C 82.4972,69.5299 83.1639,69.0299 83.5,68C 82.4848,66.6269 82.4848,65.4602 83.5,64.5 Z"/></g>
<g><path style="opacity:0.996" fill="#122d35" d="M 87.5,87.5 C 86.8592,86.5178 86.1925,85.5178 85.5,84.5C 87.107,83.2999 88.107,83.7999 88.5,86C 88.4301,86.7648 88.0967,87.2648 87.5,87.5 Z"/></g>
<g><path style="opacity:0.004" fill="#96b0b7" d="M 141.5,85.5 C 142.833,86.1667 142.833,86.1667 141.5,85.5 Z"/></g>
<g><path style="opacity:0.996" fill="#102b34" d="M 76.5,85.5 C 78.337,85.6395 78.6704,86.3061 77.5,87.5C 76.7025,87.0431 76.3691,86.3764 76.5,85.5 Z"/></g>
<g><path style="opacity:0.007" fill="#758b93" d="M 95.5,87.5 C 96.9464,86.3871 98.6131,86.2204 100.5,87C 98.8659,87.4935 97.1992,87.6602 95.5,87.5 Z"/></g>
<g><path style="opacity:0.995" fill="#85a1a9" d="M 123.5,77.5 C 123.812,81.1585 125.478,82.8252 128.5,82.5C 127.975,83.1924 127.308,83.6924 126.5,84C 127.949,85.117 129.616,85.7837 131.5,86C 130.062,86.2189 128.729,86.7189 127.5,87.5C 133.092,90.6459 132.759,92.6459 126.5,93.5C 124.348,92.9232 124.015,91.7565 125.5,90C 123.487,89.1247 123.487,87.7913 125.5,86C 123.431,85.6758 123.098,84.8425 124.5,83.5C 123.095,83.24 121.762,82.9066 120.5,82.5C 121.687,80.9275 122.687,79.2608 123.5,77.5 Z"/></g>
<g><path style="opacity:0.012" fill="#67787d" d="M 41.5,91.5 C 40.7656,90.1225 40.0989,88.6225 39.5,87C 39.8333,86.8333 40.1667,86.6667 40.5,86.5C 41.4519,88.0453 41.7852,89.712 41.5,91.5 Z"/></g>
<g><path style="opacity:0.004" fill="#90a9af" d="M 101.5,88.5 C 102.833,89.1667 102.833,89.1667 101.5,88.5 Z"/></g>
<g><path style="opacity:0.039" fill="#4e656c" d="M 117.5,76.5 C 117.672,77.4916 117.338,78.1583 116.5,78.5C 116.5,79.5 116.5,80.5 116.5,81.5C 117.959,81.4326 119.292,81.7659 120.5,82.5C 121.762,82.9066 123.095,83.24 124.5,83.5C 123.098,84.8425 123.431,85.6758 125.5,86C 123.487,87.7913 123.487,89.1247 125.5,90C 124.015,91.7565 124.348,92.9232 126.5,93.5C 126.626,95.1998 127.293,96.6998 128.5,98C 128.167,98.5 127.833,99 127.5,99.5C 126.069,99.0234 124.736,98.3567 123.5,97.5C 124.59,96.3914 124.59,95.3914 123.5,94.5C 122.614,95.325 122.281,96.325 122.5,97.5C 121.12,98.7065 119.953,98.3731 119,96.5C 118.761,95.212 119.261,94.212 120.5,93.5C 120.672,92.5084 120.338,91.8417 119.5,91.5C 118.948,89.6693 118.948,88.0026 119.5,86.5C 117.187,84.4202 115.187,82.7535 113.5,81.5C 114.025,80.8076 114.692,80.3076 115.5,80C 114.483,78.9505 114.316,77.7839 115,76.5C 115.77,75.4019 116.603,75.4019 117.5,76.5 Z"/></g>
<g><path style="opacity:0.004" fill="#96b0b7" d="M 141.5,88.5 C 142.833,89.1667 142.833,89.1667 141.5,88.5 Z"/></g>
<g><path style="opacity:0.006" fill="#6c848b" d="M 101.5,89.5 C 101.672,90.4916 101.338,91.1583 100.5,91.5C 100.328,90.5084 100.662,89.8417 101.5,89.5 Z"/></g>
<g><path style="opacity:0.004" fill="#96b0b7" d="M 114.5,89.5 C 115.525,89.8966 115.692,90.5632 115,91.5C 114.536,90.9056 114.369,90.2389 114.5,89.5 Z"/></g>
<g><path style="opacity:0.004" fill="#8ea6ac" d="M 111.5,90.5 C 112.833,91.1667 112.833,91.1667 111.5,90.5 Z"/></g>
<g><path style="opacity:0.565" fill="#657e86" d="M 100.5,91.5 C 100.33,92.8221 100.663,93.9887 101.5,95C 99.1671,96.2426 98.5004,97.9093 99.5,100C 98.9056,100.464 98.2389,100.631 97.5,100.5C 96.8333,100.5 96.5,100.167 96.5,99.5C 95.1667,99.5 93.8333,99.5 92.5,99.5C 93.0065,98.1411 94.0065,97.1411 95.5,96.5C 95.1227,94.1759 94.1227,93.5092 92.5,94.5C 91.2241,93.3864 91.2241,92.3864 92.5,91.5C 93.4916,91.6716 94.1583,91.3382 94.5,90.5C 94.5,90.1667 94.5,89.8333 94.5,89.5C 97.2421,87.9696 99.2421,88.6362 100.5,91.5 Z"/></g>
<g><path style="opacity:0.02" fill="#769096" d="M 119.5,91.5 C 118.833,92.1667 118.833,92.1667 119.5,91.5 Z"/></g>
<g><path style="opacity:0.008" fill="#2f383c" d="M 41.5,91.5 C 41.8333,91.5 42.1667,91.5 42.5,91.5C 42.5,92.1667 42.5,92.8333 42.5,93.5C 41.6618,93.1583 41.3284,92.4916 41.5,91.5 Z"/></g>
<g><path style="opacity:0.004" fill="#8fa7ad" d="M 111.5,95.5 C 112.833,96.1667 112.833,96.1667 111.5,95.5 Z"/></g>
<g><path style="opacity:0.993" fill="#181d1f" d="M 136.5,94.5 C 136.833,94.5 137.167,94.5 137.5,94.5C 141.055,97.1438 144.388,99.4772 147.5,101.5C 147.394,107.319 147.394,113.319 147.5,119.5C 147.167,119.5 146.833,119.5 146.5,119.5C 145.06,118.054 144.393,116.221 144.5,114C 145.802,106.472 142.636,101.639 135,99.5C 134.51,98.2068 134.343,96.8734 134.5,95.5C 135.167,95.1667 135.833,94.8333 136.5,94.5 Z"/></g>
<g><path style="opacity:0.502" fill="#688289" d="M 120.5,93.5 C 119.261,94.212 118.761,95.212 119,96.5C 119.953,98.3731 121.12,98.7065 122.5,97.5C 122.088,99.9726 123.088,101.306 125.5,101.5C 124.027,103.084 122.36,104.584 120.5,106C 119.622,107.555 119.622,109.221 120.5,111C 120.041,112.942 119.041,114.442 117.5,115.5C 116.41,114.143 115.076,113.143 113.5,112.5C 119.804,112.169 119.47,111.669 112.5,111C 114.936,110.794 116.602,109.627 117.5,107.5C 116.775,104.628 115.775,101.628 114.5,98.5C 115.098,97.2054 115.598,95.8721 116,94.5C 116.333,94.8333 116.667,95.1667 117,95.5C 117.71,94.0267 118.876,93.3601 120.5,93.5 Z M 117.5,107.5 C 117.517,105.972 118.184,105.472 119.5,106C 118.956,106.717 118.289,107.217 117.5,107.5 Z"/></g>
<g><path style="opacity:0.004" fill="#89a1a7" d="M 150.5,99.5 C 151.833,100.167 151.833,100.167 150.5,99.5 Z"/></g>
<g><path style="opacity:0.004" fill="#91a9b0" d="M 42.5,100.5 C 43.8333,101.167 43.8333,101.167 42.5,100.5 Z"/></g>
<g><path style="opacity:0.004" fill="#21282c" d="M 51.5,105.5 C 52.1667,105.5 52.5,105.833 52.5,106.5C 52.44,107.043 52.1067,107.376 51.5,107.5C 50.2267,106.743 50.2267,106.077 51.5,105.5 Z"/></g>
<g><path style="opacity:0.398" fill="#7e99a1" d="M 99.5,102.5 C 100.167,102.5 100.5,102.833 100.5,103.5C 102.483,105.249 104.65,106.916 107,108.5C 107.333,108.167 107.667,107.833 108,107.5C 108.74,108.749 108.573,109.749 107.5,110.5C 107.167,109.167 106.833,109.167 106.5,110.5C 105.542,110.047 104.708,109.381 104,108.5C 103.329,109.252 102.496,109.586 101.5,109.5C 100.828,108.733 99.9947,108.066 99,107.5C 97.8173,108.731 96.6507,108.731 95.5,107.5C 96.7287,106.719 98.062,106.219 99.5,106C 98.5,105.667 97.5,105.333 96.5,105C 97.6906,104.302 98.6906,103.469 99.5,102.5 Z"/></g>
<g><path style="opacity:0.01" fill="#212a30" d="M 148.5,119.5 C 148.334,114.156 148.501,108.823 149,103.5C 149.817,109.016 149.651,114.35 148.5,119.5 Z"/></g>
<g><path style="opacity:0.004" fill="#97b1b8" d="M 57.5,114.5 C 58.8333,115.167 58.8333,115.167 57.5,114.5 Z"/></g>
<g><path style="opacity:0.004" fill="#a7c1ca" d="M 64.5,114.5 C 64.5,114.833 64.5,115.167 64.5,115.5C 63.8299,115.019 63.8299,114.685 64.5,114.5 Z"/></g>
<g><path style="opacity:0.753" fill="#37444a" d="M 68.5,114.5 C 69.6009,113.402 70.9343,113.235 72.5,114C 74.3588,114.601 74.6921,115.434 73.5,116.5C 72.5084,116.328 71.8417,116.662 71.5,117.5C 70.1001,116.9 69.1001,115.9 68.5,114.5 Z"/></g>
<g><path style="opacity:0.004" fill="#93acb4" d="M 64.5,115.5 C 65.8333,116.167 65.8333,116.167 64.5,115.5 Z"/></g>
<g><path style="opacity:0.012" fill="#869da5" d="M 66.5,116.5 C 66.8966,115.475 67.5632,115.308 68.5,116C 67.9056,116.464 67.2389,116.631 66.5,116.5 Z"/></g>
<g><path style="opacity:0.996" fill="#c6e3ed" d="M 134.5,95.5 C 134.343,96.8734 134.51,98.2068 135,99.5C 142.636,101.639 145.802,106.472 144.5,114C 144.393,116.221 145.06,118.054 146.5,119.5C 146.328,120.492 146.662,121.158 147.5,121.5C 147.672,122.492 147.338,123.158 146.5,123.5C 146.167,122.167 145.833,122.167 145.5,123.5C 144.833,123.5 144.5,123.833 144.5,124.5C 142.516,124.617 140.85,123.95 139.5,122.5C 138.835,120.899 138.501,119.399 138.5,118C 136.465,117.401 134.799,117.901 133.5,119.5C 130.833,119.833 130.833,120.167 133.5,120.5C 132.129,122.259 131.129,124.259 130.5,126.5C 131.243,127.182 131.909,127.849 132.5,128.5C 132.062,128.435 131.728,128.601 131.5,129C 134.321,131.141 135.654,133.975 135.5,137.5C 135.095,138.55 134.429,138.55 133.5,137.5C 132.614,138.325 132.281,139.325 132.5,140.5C 134.807,140.986 136.973,140.986 139,140.5C 140.045,141.373 140.878,142.373 141.5,143.5C 138.482,143.665 135.482,143.498 132.5,143C 130.68,142.8 129.347,141.966 128.5,140.5C 130.465,140.052 130.798,139.052 129.5,137.5C 128.893,137.624 128.56,137.957 128.5,138.5C 126.332,138.834 124.332,138.834 122.5,138.5C 122.167,138.5 121.833,138.5 121.5,138.5C 121.565,138.062 121.399,137.728 121,137.5C 120.833,138.167 120.667,138.833 120.5,139.5C 121.79,142.411 122.79,145.411 123.5,148.5C 123.291,149.994 122.624,151.161 121.5,152C 122.056,152.383 122.389,152.883 122.5,153.5C 121.069,153.119 120.236,152.119 120,150.5C 119.259,151.641 118.425,151.641 117.5,150.5C 116.824,151.602 116.158,152.602 115.5,153.5C 115.565,153.062 115.399,152.728 115,152.5C 114.692,153.308 114.192,153.975 113.5,154.5C 112.708,149.85 111.374,145.85 109.5,142.5C 108.386,145.156 108.386,147.823 109.5,150.5C 109.5,150.833 109.5,151.167 109.5,151.5C 109.167,151.5 108.833,151.5 108.5,151.5C 106.871,153.06 105.704,152.727 105,150.5C 102.954,151.911 101.121,153.577 99.5,155.5C 98.7189,154.271 98.2189,152.938 98,151.5C 96.5693,153.364 95.4026,155.364 94.5,157.5C 94.5,157.833 94.5,158.167 94.5,158.5C 93.8333,158.5 93.1667,158.5 92.5,158.5C 90.9873,155.073 88.9873,154.739 86.5,157.5C 84.5763,155.981 82.5763,154.647 80.5,153.5C 80.6104,150.941 79.9438,148.608 78.5,146.5C 75.1512,145.17 74.8179,145.67 77.5,148C 77,148.5 76.5,149 76,149.5C 75.2904,148.027 74.1238,147.36 72.5,147.5C 72.3601,145.876 73.0267,144.71 74.5,144C 74.1667,143.667 73.8333,143.333 73.5,143C 75.1667,142.667 76.8333,142.333 78.5,142C 77.5838,141.626 76.7504,141.126 76,140.5C 73.9935,141.669 71.8268,142.335 69.5,142.5C 69.6547,145.853 68.9881,146.186 67.5,143.5C 71.1382,138.487 76.1382,135.154 82.5,133.5C 85.2377,133.851 87.9044,134.518 90.5,135.5C 91.4796,131.847 93.4796,132.014 96.5,136C 95.269,137.183 95.269,138.349 96.5,139.5C 97.931,139.023 99.2643,138.357 100.5,137.5C 100.291,136.914 99.9574,136.414 99.5,136C 100.636,134.47 101.636,133.137 102.5,132C 102.167,131.667 101.833,131.333 101.5,131C 103.677,129.798 106.011,129.298 108.5,129.5C 108.343,130.873 108.51,132.207 109,133.5C 109.778,131.416 110.945,129.583 112.5,128C 111.167,127 111.167,126 112.5,125C 110.213,123.573 109.88,121.739 111.5,119.5C 111.043,118.702 110.376,118.369 109.5,118.5C 108.045,116.69 108.212,115.023 110,113.5C 112.016,117.742 115.182,119.408 119.5,118.5C 120.524,119.853 121.857,120.52 123.5,120.5C 123.299,116.65 121.466,115.65 118,117.5C 116.62,116.744 116.453,116.078 117.5,115.5C 119.041,114.442 120.041,112.942 120.5,111C 119.622,109.221 119.622,107.555 120.5,106C 122.36,104.584 124.027,103.084 125.5,101.5C 126.736,101.011 128.236,101.011 130,101.5C 130.526,98.7284 131.359,96.0618 132.5,93.5C 133.522,93.8555 134.189,94.5222 134.5,95.5 Z"/></g>
<g><path style="opacity:0.004" fill="#96afb7" d="M 65.5,117.5 C 66.8333,118.167 66.8333,118.167 65.5,117.5 Z"/></g>
<g><path style="opacity:0.004" fill="#4e5d64" d="M 71.5,117.5 C 72.1667,117.5 72.8333,117.5 73.5,117.5C 73.5,117.833 73.5,118.167 73.5,118.5C 72.5084,118.672 71.8417,118.338 71.5,117.5 Z"/></g>
<g><path style="opacity:0.992" fill="#b2ced8" d="M 106.5,110.5 C 106.833,110.5 107.167,110.5 107.5,110.5C 109.17,112.613 111.17,113.28 113.5,112.5C 115.076,113.143 116.41,114.143 117.5,115.5C 116.453,116.078 116.62,116.744 118,117.5C 121.466,115.65 123.299,116.65 123.5,120.5C 121.857,120.52 120.524,119.853 119.5,118.5C 115.182,119.408 112.016,117.742 110,113.5C 108.212,115.023 108.045,116.69 109.5,118.5C 107.392,118.62 105.058,119.287 102.5,120.5C 103.095,122.893 104.428,124.727 106.5,126C 107.744,126.456 108.577,125.956 109,124.5C 110.724,126.498 110.057,127.498 107,127.5C 104.973,126.268 103.64,126.602 103,128.5C 101.119,124.453 100.286,120.453 100.5,116.5C 100.165,113.993 99.1654,111.826 97.5,110C 99.1147,109.938 100.448,109.771 101.5,109.5C 102.496,109.586 103.329,109.252 104,108.5C 104.708,109.381 105.542,110.047 106.5,110.5 Z"/></g>
<g><path style="opacity:0.996" fill="#18353c" d="M 101.5,111.5 C 102.776,112.386 102.776,113.386 101.5,114.5C 100.438,113.575 100.438,112.575 101.5,111.5 Z"/></g>
<g><path style="opacity:0.016" fill="#7f929a" d="M 73.5,118.5 C 74.2389,118.369 74.9056,118.536 75.5,119C 74.5632,119.692 73.8966,119.525 73.5,118.5 Z"/></g>
<g><path style="opacity:0.004" fill="#879ea5" d="M 71.5,119.5 C 72.8333,120.167 72.8333,120.167 71.5,119.5 Z"/></g>
<g><path style="opacity:0.004" fill="#c0dce3" d="M 133.5,120.5 C 133.5,120.167 133.5,119.833 133.5,119.5C 136.167,119.833 136.167,120.167 133.5,120.5 Z"/></g>
<g><path style="opacity:0.016" fill="#6f8188" d="M 147.5,119.5 C 147.833,119.5 148.167,119.5 148.5,119.5C 148.672,120.492 148.338,121.158 147.5,121.5C 147.5,120.833 147.5,120.167 147.5,119.5 Z"/></g>
<g><path style="opacity:0.004" fill="#8ea7ad" d="M 149.5,120.5 C 150.833,121.167 150.833,121.167 149.5,120.5 Z"/></g>
<g><path style="opacity:0.006" fill="#b0cbd2" d="M 80.5,122.5 C 80.8966,121.475 81.5632,121.308 82.5,122C 81.9056,122.464 81.2389,122.631 80.5,122.5 Z"/></g>
<g><path style="opacity:0.004" fill="#9cb7be" d="M 149.5,122.5 C 150.833,123.167 150.833,123.167 149.5,122.5 Z"/></g>
<g><path style="opacity:0.004" fill="#99b4bb" d="M 90.5,123.5 C 91.8333,124.167 91.8333,124.167 90.5,123.5 Z"/></g>
<g><path style="opacity:0.004" fill="#bcd4db" d="M 145.5,123.5 C 145.833,123.5 146.167,123.5 146.5,123.5C 146.315,124.17 145.981,124.17 145.5,123.5 Z"/></g>
<g><path style="opacity:0.004" fill="#9ab4bc" d="M 92.5,124.5 C 93.8333,125.167 93.8333,125.167 92.5,124.5 Z"/></g>
<g><path style="opacity:0.004" fill="#bcd5dc" d="M 144.5,124.5 C 144.833,124.5 145.167,124.5 145.5,124.5C 145.315,125.17 144.981,125.17 144.5,124.5 Z"/></g>
<g><path style="opacity:0.004" fill="#9bb6bd" d="M 89.5,125.5 C 90.8333,126.167 90.8333,126.167 89.5,125.5 Z"/></g>
<g><path style="opacity:0.004" fill="#bfd6de" d="M 140.5,125.5 C 141.833,126.167 141.833,126.167 140.5,125.5 Z"/></g>
<g><path style="opacity:0.008" fill="#bcd3db" d="M 144.5,125.5 C 144.103,126.525 143.437,126.692 142.5,126C 143.094,125.536 143.761,125.369 144.5,125.5 Z"/></g>
<g><path style="opacity:0.004" fill="#8fa8ae" d="M 71.5,127.5 C 72.8333,128.167 72.8333,128.167 71.5,127.5 Z"/></g>
<g><path style="opacity:0.996" fill="#7c979f" d="M 100.5,116.5 C 100.286,120.453 101.119,124.453 103,128.5C 103.64,126.602 104.973,126.268 107,127.5C 110.057,127.498 110.724,126.498 109,124.5C 108.577,125.956 107.744,126.456 106.5,126C 104.428,124.727 103.095,122.893 102.5,120.5C 105.058,119.287 107.392,118.62 109.5,118.5C 110.376,118.369 111.043,118.702 111.5,119.5C 109.88,121.739 110.213,123.573 112.5,125C 111.167,126 111.167,127 112.5,128C 110.945,129.583 109.778,131.416 109,133.5C 108.51,132.207 108.343,130.873 108.5,129.5C 106.011,129.298 103.677,129.798 101.5,131C 101.833,131.333 102.167,131.667 102.5,132C 101.636,133.137 100.636,134.47 99.5,136C 99.9574,136.414 100.291,136.914 100.5,137.5C 99.2643,138.357 97.931,139.023 96.5,139.5C 95.269,138.349 95.269,137.183 96.5,136C 93.4796,132.014 91.4796,131.847 90.5,135.5C 87.9044,134.518 85.2377,133.851 82.5,133.5C 84.4727,132.194 86.1394,130.527 87.5,128.5C 86.791,127.596 85.791,127.263 84.5,127.5C 84.1667,127.5 83.8333,127.5 83.5,127.5C 83.8966,126.368 85.8966,126.035 89.5,126.5C 91.6084,127.775 93.9417,128.275 96.5,128C 95.8333,127.667 95.1667,127.333 94.5,127C 95.7839,126.316 96.9505,126.483 98,127.5C 97.8596,125.149 97.3596,122.816 96.5,120.5C 95.1667,120.5 93.8333,120.5 92.5,120.5C 91.8333,119.167 91.1667,119.167 90.5,120.5C 89.1667,120.833 89.1667,121.167 90.5,121.5C 89.6857,123.273 88.3524,123.773 86.5,123C 87.1667,122.667 87.8333,122.333 88.5,122C 86.9336,121.392 85.6002,120.558 84.5,119.5C 83.556,117.035 84.556,115.368 87.5,114.5C 87.6691,115.397 88.0024,116.397 88.5,117.5C 89.4569,114.72 90.6236,112.053 92,109.5C 92.5,110 93,110.5 93.5,111C 92.2351,112.337 91.7351,113.837 92,115.5C 92.3333,115.167 92.6667,114.833 93,114.5C 95.2649,117.586 97.7649,118.252 100.5,116.5 Z M 105.5,121.5 C 109.373,123.154 109.04,123.654 104.5,123C 105.056,122.617 105.389,122.117 105.5,121.5 Z"/></g>
<g><path style="opacity:0.008" fill="#869ea5" d="M 92.5,121.5 C 93.2389,121.369 93.9056,121.536 94.5,122C 93.5632,122.692 92.8966,122.525 92.5,121.5 Z"/></g>
<g><path style="opacity:0.008" fill="#738a91" d="M 90.5,121.5 C 90.5,121.167 90.5,120.833 90.5,120.5C 91.1667,120.5 91.8333,120.5 92.5,120.5C 92.5,120.833 92.5,121.167 92.5,121.5C 91.8333,121.5 91.1667,121.5 90.5,121.5 Z"/></g>
<g><path style="opacity:0.004" fill="#8ea7ad" d="M 65.5,128.5 C 66.8333,129.167 66.8333,129.167 65.5,128.5 Z"/></g>
<g><path style="opacity:0.004" fill="#9cb7be" d="M 74.5,128.5 C 75.8333,129.167 75.8333,129.167 74.5,128.5 Z"/></g>
<g><path style="opacity:0.004" fill="#9bb6bd" d="M 69.5,132.5 C 68.8333,131.167 68.8333,131.167 69.5,132.5 Z"/></g>
<g><path style="opacity:0.988" fill="#0e1214" d="M 83.5,127.5 C 83.8333,127.5 84.1667,127.5 84.5,127.5C 85.209,128.404 86.209,128.737 87.5,128.5C 86.1394,130.527 84.4727,132.194 82.5,133.5C 76.1382,135.154 71.1382,138.487 67.5,143.5C 66.5489,144.919 66.2155,146.585 66.5,148.5C 64.8828,149.038 63.2161,149.371 61.5,149.5C 61.189,148.522 60.5223,147.855 59.5,147.5C 56.9477,148.44 56.1144,147.44 57,144.5C 58,144.167 59,143.833 60,143.5C 60.6667,141.5 61.3333,139.5 62,137.5C 62.414,137.957 62.914,138.291 63.5,138.5C 65.3359,137.081 67.3359,135.914 69.5,135C 68.8333,134.667 68.1667,134.333 67.5,134C 68.4158,133.722 69.0825,133.222 69.5,132.5C 70.5832,132.539 71.5832,132.873 72.5,133.5C 76.3888,131.726 80.0554,129.726 83.5,127.5 Z"/></g>
<g><path style="opacity:0.004" fill="#99b4bb" d="M 155.5,135.5 C 156.833,136.167 156.833,136.167 155.5,135.5 Z"/></g>
<g><path style="opacity:0.055" fill="#8da4ab" d="M 137.5,138.5 C 137.167,138.5 136.833,138.5 136.5,138.5C 136.5,137.833 136.167,137.5 135.5,137.5C 135.654,133.975 134.321,131.141 131.5,129C 131.728,128.601 132.062,128.435 132.5,128.5C 133.496,128.586 134.329,128.252 135,127.5C 136.395,129.14 137.895,130.64 139.5,132C 138.62,133.356 138.286,134.856 138.5,136.5C 143.179,136.334 147.845,136.501 152.5,137C 147.316,137.174 142.316,137.674 137.5,138.5 Z"/></g>
<g><path style="opacity:0.004" fill="#90a9b0" d="M 56.5,137.5 C 57.8333,138.167 57.8333,138.167 56.5,137.5 Z"/></g>
<g><path style="opacity:0.004" fill="#9ab5bc" d="M 158.5,138.5 C 159.833,139.167 159.833,139.167 158.5,138.5 Z"/></g>
<g><path style="opacity:0.996" fill="#132d35" d="M 128.5,140.5 C 128.5,139.833 128.5,139.167 128.5,138.5C 128.56,137.957 128.893,137.624 129.5,137.5C 130.798,139.052 130.465,140.052 128.5,140.5 Z"/></g>
<g><path style="opacity:0.918" fill="#40585f" d="M 135.5,137.5 C 136.167,137.5 136.5,137.833 136.5,138.5C 136.833,139.833 137.167,139.833 137.5,138.5C 139.5,138.5 141.5,138.5 143.5,138.5C 143.5,139.5 143.5,140.5 143.5,141.5C 143.5,142.833 142.833,143.5 141.5,143.5C 140.878,142.373 140.045,141.373 139,140.5C 136.973,140.986 134.807,140.986 132.5,140.5C 132.281,139.325 132.614,138.325 133.5,137.5C 134.429,138.55 135.095,138.55 135.5,137.5 Z"/></g>
<g><path style="opacity:0.953" fill="#7a9197" d="M 143.5,138.5 C 146.385,138.194 149.052,138.527 151.5,139.5C 150.833,139.5 150.5,139.833 150.5,140.5C 148.05,140.298 145.717,140.631 143.5,141.5C 143.5,140.5 143.5,139.5 143.5,138.5 Z"/></g>
<g><path style="opacity:0.004" fill="#6e8287" d="M 158.5,139.5 C 157.833,140.167 157.833,140.167 158.5,139.5 Z"/></g>
<g><path style="opacity:0.011" fill="#9ab4bb" d="M 121.5,138.5 C 121.833,139.833 122.167,139.833 122.5,138.5C 124.332,138.834 126.332,138.834 128.5,138.5C 128.5,139.167 128.5,139.833 128.5,140.5C 129.347,141.966 130.68,142.8 132.5,143C 135.482,143.498 138.482,143.665 141.5,143.5C 141.833,144.167 142.167,144.833 142.5,145.5C 137.378,145.709 132.545,144.709 128,142.5C 124.088,144.249 123.422,146.915 126,150.5C 126.333,149.5 126.667,148.5 127,147.5C 127.318,149.061 128.151,150.228 129.5,151C 128.167,151.333 126.833,151.667 125.5,152C 128.678,152.66 131.678,153.493 134.5,154.5C 133.265,154.721 132.265,155.388 131.5,156.5C 128.913,153.474 126.247,153.141 123.5,155.5C 123.672,154.508 123.338,153.842 122.5,153.5C 122.389,152.883 122.056,152.383 121.5,152C 122.624,151.161 123.291,149.994 123.5,148.5C 122.79,145.411 121.79,142.411 120.5,139.5C 120.667,138.833 120.833,138.167 121,137.5C 121.399,137.728 121.565,138.062 121.5,138.5 Z"/></g>
<g><path style="opacity:0.992" fill="#c8dfe6" d="M 150.5,140.5 C 152.273,141.314 152.773,142.648 152,144.5C 151.612,143.572 150.945,142.905 150,142.5C 148.56,143.148 147.06,143.481 145.5,143.5C 145.5,144.5 145.5,145.5 145.5,146.5C 144.391,146.443 143.391,146.11 142.5,145.5C 142.167,144.833 141.833,144.167 141.5,143.5C 142.833,143.5 143.5,142.833 143.5,141.5C 145.717,140.631 148.05,140.298 150.5,140.5 Z"/></g>
<g><path style="opacity:0.031" fill="#445156" d="M 150.5,140.5 C 150.5,139.833 150.833,139.5 151.5,139.5C 153.614,140.32 155.614,140.653 157.5,140.5C 157.682,142.591 157.348,144.591 156.5,146.5C 152.893,147.489 149.226,147.823 145.5,147.5C 145.5,147.167 145.5,146.833 145.5,146.5C 145.5,145.5 145.5,144.5 145.5,143.5C 147.06,143.481 148.56,143.148 150,142.5C 150.945,142.905 151.612,143.572 152,144.5C 152.773,142.648 152.273,141.314 150.5,140.5 Z M 147.5,144.5 C 150.001,144.511 150.168,145.178 148,146.5C 147.536,145.906 147.369,145.239 147.5,144.5 Z"/></g>
<g><path style="opacity:0.996" fill="#29454e" d="M 118.5,146.5 C 119.289,146.783 119.956,147.283 120.5,148C 116.566,150.221 115.899,149.721 118.5,146.5 Z"/></g>
<g><path style="opacity:0.01" fill="#9ab5bd" d="M 134.5,149.5 C 131.999,149.489 131.832,148.822 134,147.5C 134.464,148.094 134.631,148.761 134.5,149.5 Z"/></g>
<g><path style="opacity:0.012" fill="#505f64" d="M 150.5,149.5 C 151.601,148.402 152.934,148.235 154.5,149C 153.207,149.49 151.873,149.657 150.5,149.5 Z"/></g>
<g><path style="opacity:0.012" fill="#293639" d="M 61.5,149.5 C 61.5,149.833 61.5,150.167 61.5,150.5C 60.8299,150.019 60.8299,149.685 61.5,149.5 Z"/></g>
<g><path style="opacity:0.004" fill="#7e9197" d="M 147.5,149.5 C 148.833,150.167 148.833,150.167 147.5,149.5 Z"/></g>
<g><path style="opacity:0.01" fill="#3b494d" d="M 61.5,150.5 C 62.552,150.351 63.552,150.517 64.5,151C 63.2506,151.74 62.2506,151.573 61.5,150.5 Z"/></g>
<g><path style="opacity:0.982" fill="#2b393d" d="M 115.5,153.5 C 116.306,154.728 117.306,155.728 118.5,156.5C 118.5,156.833 118.5,157.167 118.5,157.5C 115.833,156.833 113.167,156.167 110.5,155.5C 110.737,154.209 110.404,153.209 109.5,152.5C 109.5,152.167 109.5,151.833 109.5,151.5C 110.833,151.167 110.833,150.833 109.5,150.5C 108.386,147.823 108.386,145.156 109.5,142.5C 111.374,145.85 112.708,149.85 113.5,154.5C 114.192,153.975 114.692,153.308 115,152.5C 115.399,152.728 115.565,153.062 115.5,153.5 Z"/></g>
<g><path style="opacity:0.082" fill="#889da3" d="M 142.5,145.5 C 143.391,146.11 144.391,146.443 145.5,146.5C 145.5,146.833 145.5,147.167 145.5,147.5C 146.833,148.5 146.833,149.5 145.5,150.5C 145.167,150.5 144.833,150.5 144.5,150.5C 144.167,147.833 143.833,147.833 143.5,150.5C 143.167,150.5 142.833,150.5 142.5,150.5C 142.167,149.167 141.833,149.167 141.5,150.5C 141.062,150.435 140.728,150.601 140.5,151C 142.595,151.556 142.762,152.056 141,152.5C 140.05,151.978 139.216,151.311 138.5,150.5C 137.893,150.624 137.56,150.957 137.5,151.5C 135.632,152.674 134.632,152.007 134.5,149.5C 135.315,148.571 136.148,147.571 137,146.5C 138.996,147.341 140.829,147.008 142.5,145.5 Z"/></g>
<g><path style="opacity:0.725" fill="#536267" d="M 141.5,150.5 C 141.833,150.5 142.167,150.5 142.5,150.5C 142.833,150.5 143.167,150.5 143.5,150.5C 143.833,150.5 144.167,150.5 144.5,150.5C 144.5,151.167 144.5,151.833 144.5,152.5C 142.571,153.006 140.905,154.006 139.5,155.5C 139.655,154.164 138.988,152.831 137.5,151.5C 137.56,150.957 137.893,150.624 138.5,150.5C 139.216,151.311 140.05,151.978 141,152.5C 142.762,152.056 142.595,151.556 140.5,151C 140.728,150.601 141.062,150.435 141.5,150.5 Z"/></g>
<g><path style="opacity:0.012" fill="#5d6e74" d="M 145.5,150.5 C 146.833,151.167 146.833,151.833 145.5,152.5C 145.5,151.833 145.5,151.167 145.5,150.5 Z"/></g>
<g><path style="opacity:0.004" fill="#607075" d="M 144.5,152.5 C 144.833,152.5 145.167,152.5 145.5,152.5C 145.315,153.17 144.981,153.17 144.5,152.5 Z"/></g>
<g><path style="opacity:0.004" fill="#9eb9c0" d="M 147.5,152.5 C 148.833,153.167 148.833,153.167 147.5,152.5 Z"/></g>
<g><path style="opacity:0.996" fill="#698087" d="M 80.5,153.5 C 80.2172,154.289 79.7172,154.956 79,155.5C 78.0228,154.226 77.1894,154.226 76.5,155.5C 76.1667,155.5 75.8333,155.5 75.5,155.5C 74.719,153.678 73.5523,153.011 72,153.5C 71.5172,152.552 71.3505,151.552 71.5,150.5C 63.5272,150.326 63.5272,149.826 71.5,149C 69.8659,148.506 68.1992,148.34 66.5,148.5C 66.2155,146.585 66.5489,144.919 67.5,143.5C 68.9881,146.186 69.6547,145.853 69.5,142.5C 71.8268,142.335 73.9935,141.669 76,140.5C 76.7504,141.126 77.5838,141.626 78.5,142C 76.8333,142.333 75.1667,142.667 73.5,143C 73.8333,143.333 74.1667,143.667 74.5,144C 73.0267,144.71 72.3601,145.876 72.5,147.5C 74.1238,147.36 75.2904,148.027 76,149.5C 76.5,149 77,148.5 77.5,148C 74.8179,145.67 75.1512,145.17 78.5,146.5C 79.9438,148.608 80.6104,150.941 80.5,153.5 Z"/></g>
<g><path style="opacity:0.051" fill="#9cb4bb" d="M 108.5,151.5 C 108.5,152.167 108.833,152.5 109.5,152.5C 109.5,153.5 109.5,154.5 109.5,155.5C 105.688,156.026 102.021,156.693 98.5,157.5C 97.1667,157.5 95.8333,157.5 94.5,157.5C 95.4026,155.364 96.5693,153.364 98,151.5C 98.2189,152.938 98.7189,154.271 99.5,155.5C 101.121,153.577 102.954,151.911 105,150.5C 105.704,152.727 106.871,153.06 108.5,151.5 Z"/></g>
<g><path style="opacity:0.012" fill="#707f84" d="M 142.5,154.5 C 143.833,155.167 143.833,155.167 142.5,154.5 Z"/></g>
<g><path style="opacity:0.004" fill="#4c5b60" d="M 145.5,154.5 C 146.833,155.167 146.833,155.167 145.5,154.5 Z"/></g>
<g><path style="opacity:0.994" fill="#20282c" d="M 80.5,153.5 C 82.5763,154.647 84.5763,155.981 86.5,157.5C 88.9873,154.739 90.9873,155.073 92.5,158.5C 92.5,158.833 92.5,159.167 92.5,159.5C 91.209,159.263 90.209,159.596 89.5,160.5C 88.391,160.443 87.391,160.11 86.5,159.5C 85.5,158.167 84.5,158.167 83.5,159.5C 80.4183,158.87 77.4183,157.87 74.5,156.5C 74.6236,155.893 74.9569,155.56 75.5,155.5C 75.8333,156.833 76.1667,156.833 76.5,155.5C 77.1894,154.226 78.0228,154.226 79,155.5C 79.7172,154.956 80.2172,154.289 80.5,153.5 Z"/></g>
<g><path style="opacity:0.004" fill="#47575b" d="M 109.5,155.5 C 109.833,155.5 110.167,155.5 110.5,155.5C 110.315,156.17 109.981,156.17 109.5,155.5 Z"/></g>
<g><path style="opacity:0.004" fill="#9bb5bd" d="M 148.5,156.5 C 148.897,155.475 149.563,155.308 150.5,156C 149.906,156.464 149.239,156.631 148.5,156.5 Z"/></g>
<g><path style="opacity:0.992" fill="#c1d8df" d="M 134.5,154.5 C 136.567,153.407 137.234,153.907 136.5,156C 137.552,157.119 138.719,157.619 140,157.5C 140.5,158.5 141,159.5 141.5,160.5C 141.03,161.463 140.363,161.463 139.5,160.5C 137.694,163.338 136.694,163.005 136.5,159.5C 134.208,159.756 132.041,159.423 130,158.5C 129.536,159.094 129.369,159.761 129.5,160.5C 130.116,161.798 130.116,162.798 129.5,163.5C 128.599,162.71 127.932,161.71 127.5,160.5C 127.414,159.504 127.748,158.671 128.5,158C 126.256,157.95 124.589,157.117 123.5,155.5C 126.247,153.141 128.913,153.474 131.5,156.5C 132.265,155.388 133.265,154.721 134.5,154.5 Z"/></g>
<g><path style="opacity:0.004" fill="#9fbbc3" d="M 142.5,156.5 C 143.833,157.167 143.833,157.167 142.5,156.5 Z"/></g>
<g><path style="opacity:0.016" fill="#99b0b8" d="M 98.5,158.5 C 98.5,158.167 98.5,157.833 98.5,157.5C 102.5,157.833 102.5,158.167 98.5,158.5 Z"/></g>
<g><path style="opacity:0.004" fill="#9ab4bb" d="M 107.5,157.5 C 108.833,158.167 108.833,158.167 107.5,157.5 Z"/></g>
<g><path style="opacity:0.286" fill="#6d8187" d="M 122.5,153.5 C 123.338,153.842 123.672,154.508 123.5,155.5C 124.589,157.117 126.256,157.95 128.5,158C 127.748,158.671 127.414,159.504 127.5,160.5C 125.274,158.82 123.607,159.153 122.5,161.5C 121.732,160.737 121.232,159.737 121,158.5C 120.667,159.833 120.333,161.167 120,162.5C 119.79,160.942 119.29,159.609 118.5,158.5C 118.5,158.167 118.5,157.833 118.5,157.5C 122.5,157.167 122.5,156.833 118.5,156.5C 117.306,155.728 116.306,154.728 115.5,153.5C 116.158,152.602 116.824,151.602 117.5,150.5C 118.425,151.641 119.259,151.641 120,150.5C 120.236,152.119 121.069,153.119 122.5,153.5 Z"/></g>
<g><path style="opacity:0.012" fill="#2a363a" d="M 76.5,159.5 C 76.8966,158.475 77.5632,158.308 78.5,159C 77.9056,159.464 77.2389,159.631 76.5,159.5 Z"/></g>
<g><path style="opacity:0.012" fill="#94abb3" d="M 94.5,159.5 C 94.5,159.167 94.5,158.833 94.5,158.5C 95.8333,158.5 97.1667,158.5 98.5,158.5C 97.4324,159.434 96.099,159.768 94.5,159.5 Z"/></g>
<g><path style="opacity:0.004" fill="#526368" d="M 118.5,158.5 C 117.833,159.167 117.833,159.167 118.5,158.5 Z"/></g>
<g><path style="opacity:0.004" fill="#9ab4bb" d="M 145.5,158.5 C 146.833,159.167 146.833,159.167 145.5,158.5 Z"/></g>
<g><path style="opacity:0.004" fill="#3b474c" d="M 83.5,160.5 C 83.5,160.167 83.5,159.833 83.5,159.5C 84.5,159.5 85.5,159.5 86.5,159.5C 85.8946,161.481 84.8946,161.815 83.5,160.5 Z"/></g>
<g><path style="opacity:0.004" fill="#7d9196" d="M 92.5,160.5 C 92.5,160.167 92.5,159.833 92.5,159.5C 93.1667,159.5 93.8333,159.5 94.5,159.5C 94.1583,160.338 93.4916,160.672 92.5,160.5 Z"/></g>
<g><path style="opacity:0.008" fill="#394348" d="M 83.5,160.5 C 83.1034,161.525 82.4368,161.692 81.5,161C 82.0944,160.536 82.7611,160.369 83.5,160.5 Z"/></g>
<g><path style="opacity:0.012" fill="#2e383d" d="M 89.5,161.5 C 89.5,161.167 89.5,160.833 89.5,160.5C 90.5,160.5 91.5,160.5 92.5,160.5C 91.791,161.404 90.791,161.737 89.5,161.5 Z"/></g>
<g><path style="opacity:0.671" fill="#252d30" d="M 127.5,160.5 C 127.932,161.71 128.599,162.71 129.5,163.5C 130.551,164.222 131.218,165.222 131.5,166.5C 128.464,166.81 126.797,165.143 126.5,161.5C 125.167,161.5 123.833,161.5 122.5,161.5C 123.607,159.153 125.274,158.82 127.5,160.5 Z"/></g>
<g><path style="opacity:0.004" fill="#424d53" d="M 89.5,161.5 C 89.1034,162.525 88.4368,162.692 87.5,162C 88.0944,161.536 88.7611,161.369 89.5,161.5 Z"/></g>
<g><path style="opacity:0.008" fill="#374448" d="M 122.5,163.5 C 123.386,162.224 124.386,162.224 125.5,163.5C 124.767,164.087 123.767,164.087 122.5,163.5 Z"/></g>
<g><path style="opacity:0.004" fill="#9cb7be" d="M 119.5,163.5 C 120.833,164.167 120.833,164.167 119.5,163.5 Z"/></g>
<g><path style="opacity:0.004" fill="#98b2b9" d="M 90.5,164.5 C 91.8333,165.167 91.8333,165.167 90.5,164.5 Z"/></g>
<g><path style="opacity:0.227" fill="#6a797e" d="M 129.5,160.5 C 130.167,160.5 130.833,160.5 131.5,160.5C 131.833,161.833 132.167,161.833 132.5,160.5C 133.492,160.328 134.158,160.662 134.5,161.5C 133.313,163.072 132.313,164.739 131.5,166.5C 131.218,165.222 130.551,164.222 129.5,163.5C 130.116,162.798 130.116,161.798 129.5,160.5 Z"/></g>
<g><path style="opacity:0.016" fill="#3a4649" d="M 139.5,160.5 C 139.343,161.873 139.51,163.207 140,164.5C 140.556,162.405 141.056,162.238 141.5,164C 141.361,165.301 140.695,166.134 139.5,166.5C 137.777,165.193 135.943,165.193 134,166.5C 134.019,164.893 134.185,163.226 134.5,161.5C 134.158,160.662 133.492,160.328 132.5,160.5C 132.167,160.5 131.833,160.5 131.5,160.5C 130.833,160.5 130.167,160.5 129.5,160.5C 129.369,159.761 129.536,159.094 130,158.5C 132.041,159.423 134.208,159.756 136.5,159.5C 136.694,163.005 137.694,163.338 139.5,160.5 Z"/></g>
<g><path style="opacity:0.008" fill="#2e383b" d="M 139.5,166.5 C 138.399,167.598 137.066,167.765 135.5,167C 136.793,166.51 138.127,166.343 139.5,166.5 Z"/></g>
<g><path style="opacity:0.004" fill="#9bb6be" d="M 134.5,169.5 C 135.525,169.897 135.692,170.563 135,171.5C 134.536,170.906 134.369,170.239 134.5,169.5 Z"/></g>
<g><path style="opacity:0.004" fill="#8ca5ac" d="M 127.5,173.5 C 128.833,174.167 128.833,174.167 127.5,173.5 Z"/></g>
</svg>
